<svg width="148" height="165" viewBox="0 0 148 165" fill="none" xmlns="http://www.w3.org/2000/svg">
<path d="M93.6318 117.375C96.1339 122.243 103.416 122.229 106.816 117.962C110.497 113.341 107.275 106.939 102.617 104.945C97.4521 102.737 91.1465 106.499 90.0654 112.178C88.9842 117.857 94.0575 122.606 99.482 121.706C100.938 121.468 100.369 119.232 98.9299 119.474C94.846 120.149 91.2699 116.071 92.4226 111.99C93.5753 107.908 98.2928 105.408 102.042 107.254C104.974 108.696 107.35 112.656 105.454 115.951C103.373 119.556 97.4938 119.81 95.6184 116.185C94.942 114.874 92.9478 116.067 93.6223 117.37L93.6318 117.375Z" fill="#10100E"/>
<path d="M47.9355 47.3642C50.2985 51.9613 57.1759 51.9487 60.387 47.9186C63.8635 43.5539 60.821 37.5078 56.4219 35.6245C51.5436 33.5396 45.5882 37.0922 44.5671 42.4555C43.5461 47.8189 48.3375 52.3048 53.4606 51.4545C54.8359 51.2293 54.2983 49.118 52.9392 49.3464C49.0822 49.9834 45.7048 46.1325 46.7934 42.2777C47.8821 38.4228 52.3375 36.0615 55.8784 37.8057C58.6478 39.167 60.8918 42.9075 59.1012 46.0194C57.1355 49.4242 51.5829 49.6638 49.8117 46.2401C49.1729 45.0021 47.2894 46.1282 47.9264 47.3589L47.9355 47.3642Z" fill="#10100E"/>
<path d="M18.3814 118.171H38.9412C40.4622 118.171 40.468 116.18 38.9412 116.18H18.3814C16.8546 116.18 16.8546 118.171 18.3814 118.171Z" fill="#10100E"/>
<path d="M27.684 126.4V106.818C27.684 105.279 25.6973 105.279 25.6973 106.818V126.4C25.6973 127.945 27.684 127.945 27.684 126.4Z" fill="#10100E"/>
<path d="M114.932 44.6098C117.295 49.2069 124.172 49.1943 127.383 45.1642C130.86 40.7995 127.817 34.7534 123.418 32.8701C118.54 30.7852 112.584 34.3378 111.563 39.7011C110.542 45.0645 115.334 49.5504 120.457 48.7001C121.832 48.4749 121.294 46.3636 119.935 46.592C116.078 47.229 112.701 43.3782 113.79 39.5233C114.878 35.6684 119.334 33.3071 122.875 35.0513C125.644 36.4126 127.888 40.1531 126.097 43.265C124.132 46.6698 118.579 46.9094 116.808 43.4857C116.169 42.2477 114.286 43.3739 114.923 44.6045L114.932 44.6098Z" fill="#10100E"/>
<path d="M93.25 106.687C93.25 106.687 63.203 77.7299 54.1904 48.3402" stroke="black" stroke-width="2"/>
</svg>
