<svg width="134" height="140" viewBox="0 0 134 140" fill="none" xmlns="http://www.w3.org/2000/svg">
<path d="M89.6585 102.168C91.6045 105.954 97.2682 105.944 99.9126 102.625C102.776 99.0302 100.27 94.0511 96.6472 92.5001C92.6298 90.7832 87.7254 93.7088 86.8845 98.1257C86.0437 102.543 89.9896 106.237 94.2086 105.537C95.3412 105.351 94.8984 103.612 93.7792 103.801C90.6028 104.325 87.8214 101.154 88.7179 97.9792C89.6145 94.8046 93.2836 92.86 96.1997 94.2964C98.4804 95.4175 100.328 98.4979 98.8538 101.061C97.2349 103.865 92.6622 104.062 91.2036 101.242C90.6775 100.223 89.1264 101.15 89.651 102.164L89.6585 102.168Z" fill="#10100E"/>
<path d="M53.6585 47.1681C55.6045 50.954 61.2682 50.9436 63.9126 47.6247C66.7756 44.0302 64.2701 39.0511 60.6472 37.5001C56.6298 35.7832 51.7254 38.7088 50.8845 43.1257C50.0437 47.5426 53.9896 51.2369 58.2086 50.5367C59.3412 50.3512 58.8984 48.6125 57.7792 48.8005C54.6028 49.3251 51.8214 46.1538 52.7179 42.9792C53.6145 39.8046 57.2836 37.86 60.1997 39.2964C62.4804 40.4175 64.3284 43.4979 62.8538 46.0607C61.2349 48.8646 56.6622 49.0619 55.2036 46.2424C54.6775 45.2229 53.1264 46.1503 53.651 47.1638L53.6585 47.1681Z" fill="#10100E"/>
<path d="M30.7415 102.636H46.8734C48.0669 102.636 48.0714 101.066 46.8734 101.066H30.7415C29.5435 101.066 29.5435 102.636 30.7415 102.636Z" fill="#10100E"/>
<path d="M38.0411 109.127V93.6813C38.0411 92.4673 36.4822 92.4673 36.4822 93.6813V109.127C36.4822 110.346 38.0411 110.346 38.0411 109.127Z" fill="#10100E"/>
<path d="M106.658 45.1681C108.605 48.954 114.268 48.9436 116.913 45.6247C119.776 42.0302 117.27 37.0511 113.647 35.5001C109.63 33.7832 104.725 36.7088 103.885 41.1257C103.044 45.5426 106.99 49.2369 111.209 48.5367C112.341 48.3512 111.898 46.6125 110.779 46.8005C107.603 47.3251 104.821 44.1538 105.718 40.9792C106.614 37.8046 110.284 35.86 113.2 37.2964C115.48 38.4175 117.328 41.4979 115.854 44.0607C114.235 46.8646 109.662 47.0619 108.204 44.2424C107.677 43.2229 106.126 44.1503 106.651 45.1638L106.658 45.1681Z" fill="#10100E"/>
<path d="M89.6504 93.8923C89.6504 93.8923 65.7058 71.08 58.3491 48.1077" stroke="black" stroke-width="2"/>
</svg>
