<svg width="218" height="230" viewBox="0 0 218 230" fill="none" xmlns="http://www.w3.org/2000/svg">
<mask id="mask0" mask-type="alpha" maskUnits="userSpaceOnUse" x="0" y="0" width="218" height="230">
<rect width="218" height="230" fill="white"/>
</mask>
<g mask="url(#mask0)">
<path d="M-2.5 117.5L25.5 122.5" stroke="#00E3BE" stroke-width="2"/>
<path d="M-2.5 168.5L25.5 163.5" stroke="#00E3BE" stroke-width="2"/>
<path d="M2 215L26 207" stroke="#00E3BE" stroke-width="2"/>
<path d="M43.5 214.5L71.5 209.5" stroke="#00E3BE" stroke-width="2"/>
<path d="M86.5 209.5L114.5 214.5" stroke="#00E3BE" stroke-width="2"/>
<path d="M43.5 165.202L71.5 166.798" stroke="#00E3BE" stroke-width="2"/>
<path d="M2 26L26 34" stroke="#00E3BE" stroke-width="2"/>
<path d="M44.5 20.5L68.5 33.5" stroke="#00E3BE" stroke-width="2"/>
<path d="M89 19L113 35" stroke="#00E3BE" stroke-width="2"/>
<path d="M133 17L154 38" stroke="#00E3BE" stroke-width="2"/>
<path d="M181.5 16.5L196.5 40.5" stroke="#00E3BE" stroke-width="2"/>
<path d="M-2 70L26 78" stroke="#00E3BE" stroke-width="2"/>
<path d="M44 72L68 80" stroke="#00E3BE" stroke-width="2"/>
<path d="M89.5 68.5L113.5 83.5" stroke="#00E3BE" stroke-width="2"/>
<path d="M133 68L157 84" stroke="#00E3BE" stroke-width="2"/>
<path d="M181 62L197 86" stroke="#00E3BE" stroke-width="2"/>
<path d="M43.5 117.5L71.5 122.5" stroke="#00E3BE" stroke-width="2"/>
<path d="M90 118L114 126" stroke="#00E3BE" stroke-width="2"/>
<path d="M134.5 114.5L158.5 129.5" stroke="#00E3BE" stroke-width="2"/>
<path d="M180.5 109.5L196.5 130.5" stroke="#00E3BE" stroke-width="2"/>
<path d="M86 161L114 169" stroke="#00E3BE" stroke-width="2"/>
<path d="M132.5 159.5L156.5 174.5" stroke="#00E3BE" stroke-width="2"/>
<path d="M180 155L201 176" stroke="#00E3BE" stroke-width="2"/>
<path d="M133.5 204.5L157.5 217.5" stroke="#00E3BE" stroke-width="2"/>
<path d="M180.5 198.5L196.5 219.5" stroke="#00E3BE" stroke-width="2"/>
</g>
</svg>
