<svg width="149" height="165" viewBox="0 0 149 165" fill="none" xmlns="http://www.w3.org/2000/svg">
<path d="M93.7549 117.459C96.2569 122.327 103.539 122.313 106.939 118.046C110.62 113.425 107.398 107.023 102.74 105.029C97.5752 102.821 91.2695 106.583 90.1884 112.262C89.1073 117.94 94.1806 122.69 99.605 121.79C101.061 121.552 100.492 119.316 99.0529 119.558C94.9691 120.232 91.393 116.155 92.5456 112.073C93.6983 107.992 98.4158 105.491 102.165 107.338C105.097 108.78 107.473 112.74 105.577 116.035C103.496 119.64 97.6168 119.894 95.7414 116.269C95.0651 114.958 93.0708 116.15 93.7453 117.453L93.7549 117.459Z" fill="#10100E"/>
<path d="M48.0585 47.4476C50.4216 52.0448 57.2989 52.0322 60.51 48.0021C63.9865 43.6374 60.944 37.5913 56.5449 35.708C51.6666 33.6231 45.7113 37.1757 44.6902 42.539C43.6691 47.9024 48.4606 52.3883 53.5837 51.538C54.959 51.3128 54.4213 49.2015 53.0623 49.4299C49.2053 50.0669 45.8278 46.216 46.9165 42.3612C48.0051 38.5063 52.4605 36.145 56.0015 37.8892C58.7709 39.2505 61.0149 42.991 59.2242 46.1029C57.2585 49.5077 51.7059 49.7473 49.9347 46.3236C49.2959 45.0856 47.4125 46.2117 48.0495 47.4424L48.0585 47.4476Z" fill="#10100E"/>
<path d="M18.5045 118.254H39.0642C40.5852 118.254 40.591 116.264 39.0642 116.264H18.5045C16.9777 116.264 16.9777 118.254 18.5045 118.254Z" fill="#10100E"/>
<path d="M27.8071 126.484V106.902C27.8071 105.363 25.8203 105.363 25.8203 106.902V126.484C25.8203 128.029 27.8071 128.029 27.8071 126.484Z" fill="#10100E"/>
<path d="M115.055 44.6935C117.418 49.2906 124.295 49.2781 127.506 45.2479C130.983 40.8832 127.94 34.8371 123.541 32.9538C118.663 30.869 112.707 34.4215 111.686 39.7849C110.665 45.1482 115.457 49.6342 120.58 48.7839C121.955 48.5587 121.417 46.4474 120.058 46.6757C116.201 47.3128 112.824 43.4619 113.913 39.607C115.001 35.7521 119.457 33.3908 122.998 35.135C125.767 36.4963 128.011 40.2369 126.22 43.3488C124.255 46.7535 118.702 46.9932 116.931 43.5694C116.292 42.3314 114.409 43.4576 115.046 44.6883L115.055 44.6935Z" fill="#10100E"/>
<path d="M93.375 106.771C93.375 106.771 63.328 77.8137 54.3154 48.424" stroke="black" stroke-width="2"/>
</svg>
