<svg width="117" height="130" viewBox="0 0 117 130" fill="none" xmlns="http://www.w3.org/2000/svg">
<path d="M73.6589 93.168C75.605 96.9539 81.2687 96.9436 83.9131 93.6246C86.7761 90.0302 84.2706 85.051 80.6477 83.5001C76.6303 81.7831 71.7259 84.7087 70.885 89.1256C70.0441 93.5425 73.9901 97.2368 78.2091 96.5366C79.3417 96.3511 78.8989 94.6124 77.7797 94.8005C74.6033 95.3251 71.8219 92.1538 72.7184 88.9792C73.615 85.8045 77.2841 83.8599 80.2002 85.2964C82.4809 86.4174 84.3289 89.4979 82.8542 92.0606C81.2354 94.8645 76.6627 95.0619 75.2041 92.2423C74.678 91.2228 73.1269 92.1502 73.6515 93.1637L73.6589 93.168Z" fill="#10100E"/>
<path d="M37.6589 38.168C39.605 41.9539 45.2687 41.9436 47.9131 38.6246C50.7761 35.0302 48.2706 30.051 44.6477 28.5001C40.6303 26.7831 35.7259 29.7087 34.885 34.1256C34.0441 38.5425 37.9901 42.2368 42.2091 41.5366C43.3417 41.3511 42.8989 39.6124 41.7797 39.8005C38.6033 40.3251 35.8219 37.1538 36.7184 33.9792C37.615 30.8045 41.2841 28.8599 44.2002 30.2964C46.4809 31.4174 48.3289 34.4979 46.8542 37.0606C45.2354 39.8645 40.6627 40.0619 39.2041 37.2423C38.678 36.2228 37.1269 37.1502 37.6515 38.1637L37.6589 38.168Z" fill="#10100E"/>
<path d="M14.7422 93.636H30.8742C32.0676 93.636 32.0722 92.066 30.8742 92.066H14.7422C13.5443 92.066 13.5443 93.636 14.7422 93.636Z" fill="#10100E"/>
<path d="M22.0413 100.127V84.6813C22.0413 83.4672 20.4824 83.4672 20.4824 84.6813V100.127C20.4824 101.346 22.0413 101.346 22.0413 100.127Z" fill="#10100E"/>
<path d="M90.6589 36.1681C92.605 39.954 98.2687 39.9436 100.913 36.6247C103.776 33.0302 101.271 28.0511 97.6477 26.5001C93.6303 24.7832 88.7259 27.7088 87.885 32.1257C87.0441 36.5426 90.9901 40.2369 95.2091 39.5367C96.3417 39.3512 95.8989 37.6125 94.7797 37.8005C91.6033 38.3251 88.8219 35.1538 89.7184 31.9792C90.615 28.8046 94.2841 26.86 97.2002 28.2964C99.4809 29.4175 101.329 32.4979 99.8542 35.0607C98.2354 37.8646 93.6627 38.0619 92.2041 35.2424C91.678 34.2229 90.1269 35.1503 90.6515 36.1638L90.6589 36.1681Z" fill="#10100E"/>
<path d="M73.6514 84.8923C73.6514 84.8923 49.7067 62.0799 42.3501 39.1077" stroke="black" stroke-width="2"/>
</svg>
