<svg width="134" height="141" viewBox="0 0 134 141" fill="none" xmlns="http://www.w3.org/2000/svg">
<path d="M89.4791 102.974C91.4005 106.802 97.0946 106.739 99.784 103.342C102.696 99.6637 100.223 94.6277 96.5951 93.0855C92.5721 91.3782 87.6142 94.3964 86.7279 98.8921C85.8415 103.388 89.7743 107.105 94.0224 106.354C95.1628 106.155 94.7338 104.393 93.6068 104.594C90.4086 105.157 87.6417 101.96 88.5725 98.7262C89.5032 95.4923 93.2101 93.4824 96.1285 94.9148C98.411 96.0327 100.24 99.1455 98.734 101.763C97.0804 104.627 92.4814 104.87 91.0411 102.019C90.5217 100.988 88.9537 101.944 89.4717 102.969L89.4791 102.974Z" fill="#10100E"/>
<path d="M53.7965 47.4238C55.7179 51.2524 61.412 51.1894 64.1014 47.7925C67.0131 44.1138 64.5403 39.0778 60.9125 37.5356C56.8895 35.8283 51.9316 38.8465 51.0453 43.3421C50.1589 47.8378 54.0917 51.5549 58.3398 50.8042C59.4802 50.6053 59.0512 48.8427 57.9242 49.0442C54.726 49.6067 51.9591 46.4102 52.8898 43.1763C53.8206 39.9423 57.5275 37.9324 60.4459 39.3649C62.7284 40.4828 64.5577 43.5956 63.0514 46.2132C61.3978 49.0772 56.7988 49.3202 55.3585 46.4688C54.8391 45.4378 53.2711 46.3945 53.7891 47.4195L53.7965 47.4238Z" fill="#10100E"/>
<path d="M30.1174 103.899H46.5951C47.8141 103.899 47.8187 102.329 46.5951 102.329H30.1174C28.8938 102.329 28.8938 103.899 30.1174 103.899Z" fill="#10100E"/>
<path d="M37.5737 110.39V94.9439C37.5737 93.7298 35.9814 93.7298 35.9814 94.9439V110.39C35.9814 111.608 37.5737 111.608 37.5737 110.39Z" fill="#10100E"/>
<path d="M107.099 44.8998C109.021 48.7285 114.715 48.6654 117.404 45.2686C120.316 41.5898 117.843 36.5539 114.215 35.0117C110.192 33.3044 105.234 36.3225 104.348 40.8182C103.462 45.3139 107.394 49.0309 111.643 48.2803C112.783 48.0814 112.354 46.3188 111.227 46.5203C108.029 47.0828 105.262 43.8863 106.193 40.6524C107.123 37.4184 110.83 35.4085 113.749 36.841C116.031 37.9589 117.86 41.0717 116.354 43.6893C114.701 46.5533 110.102 46.7962 108.661 43.9449C108.142 42.9139 106.574 43.8706 107.092 44.8955L107.099 44.8998Z" fill="#10100E"/>
<path d="M89.5479 94.5649C89.5479 94.5649 65.6866 71.6081 58.5037 48.3349" stroke="black" stroke-width="2"/>
</svg>
