<svg width="243" height="250" viewBox="0 0 243 250" fill="none" xmlns="http://www.w3.org/2000/svg">
<mask id="mask0" mask-type="alpha" maskUnits="userSpaceOnUse" x="13" y="0" width="230" height="241">
<rect x="13" width="230" height="241" fill="white"/>
</mask>
<g mask="url(#mask0)">
<path d="M19.5 167.5L47.5 172.5" stroke="#00ECCC" stroke-width="2"/>
<path d="M19.5 219.5L47.5 214.5" stroke="#00ECCC" stroke-width="2"/>
<path d="M211 110L219 138" stroke="#00ECCC" stroke-width="2"/>
<path d="M159.5 -25.5L172.5 0.5" stroke="#00ECCC" stroke-width="2"/>
<path d="M22.5 26.5L46.5 41.5" stroke="#00ECCC" stroke-width="2"/>
<path d="M66 26L90 42" stroke="#00ECCC" stroke-width="2"/>
<path d="M114 20L130 44" stroke="#00ECCC" stroke-width="2"/>
<path d="M159.5 20.5L172.5 46.5" stroke="#00ECCC" stroke-width="2"/>
<path d="M211 20L219 48" stroke="#00ECCC" stroke-width="2"/>
<path d="M23 76L47 84" stroke="#00ECCC" stroke-width="2"/>
<path d="M67.5 72.5L91.5 87.5" stroke="#00ECCC" stroke-width="2"/>
<path d="M113.5 67.5L129.5 88.5" stroke="#00ECCC" stroke-width="2"/>
<path d="M159.5 66.5L172.5 92.5" stroke="#00ECCC" stroke-width="2"/>
<path d="M211 64L219 92" stroke="#00ECCC" stroke-width="2"/>
<path d="M19 119L47 127" stroke="#00ECCC" stroke-width="2"/>
<path d="M65.5 117.5L89.5 132.5" stroke="#00ECCC" stroke-width="2"/>
<path d="M113 113L134 134" stroke="#00ECCC" stroke-width="2"/>
<path d="M159.5 110.5L172.5 136.5" stroke="#00ECCC" stroke-width="2"/>
<path d="M66.5 162.5L90.5 175.5" stroke="#00ECCC" stroke-width="2"/>
<path d="M113.5 156.5L129.5 177.5" stroke="#00ECCC" stroke-width="2"/>
<path d="M165 154L173 180" stroke="#00ECCC" stroke-width="2"/>
<path d="M212.5 155.5L217.5 183.5" stroke="#00ECCC" stroke-width="2"/>
<path d="M66.5 208.5L90.5 221.5" stroke="#00ECCC" stroke-width="2"/>
<path d="M114.5 200.5L129.5 224.5" stroke="#00ECCC" stroke-width="2"/>
<path d="M164 201L172 229" stroke="#00ECCC" stroke-width="2"/>
<path d="M214.932 201.5L215.068 229.5" stroke="#00ECCC" stroke-width="2"/>
</g>
</svg>
