<svg width="172" height="165" viewBox="0 0 172 165" fill="none" xmlns="http://www.w3.org/2000/svg">
<mask id="mask0" style="mask-type:alpha" maskUnits="userSpaceOnUse" x="0" y="0" width="172" height="165">
<rect width="172" height="165" fill="white"/>
</mask>
<g mask="url(#mask0)">
<path d="M10.5 149.5L38.5 144.5" stroke="#00ECCC" stroke-width="2"/>
<path d="M53.5 144.5L81.5 149.5" stroke="#00ECCC" stroke-width="2"/>
<path d="M10.5 100.202L38.5 101.798" stroke="#00ECCC" stroke-width="2"/>
<path d="M11 7L35 15" stroke="#00ECCC" stroke-width="2"/>
<path d="M56.5 3.5L80.5 18.5" stroke="#00ECCC" stroke-width="2"/>
<path d="M100 3L124 19" stroke="#00ECCC" stroke-width="2"/>
<path d="M148 -3L164 21" stroke="#00ECCC" stroke-width="2"/>
<path d="M10.5 52.5L38.5 57.5" stroke="#00ECCC" stroke-width="2"/>
<path d="M57 53L81 61" stroke="#00ECCC" stroke-width="2"/>
<path d="M101.5 49.5L125.5 64.5" stroke="#00ECCC" stroke-width="2"/>
<path d="M147.5 44.5L163.5 65.5" stroke="#00ECCC" stroke-width="2"/>
<path d="M53 96L81 104" stroke="#00ECCC" stroke-width="2"/>
<path d="M99.5 94.5L123.5 109.5" stroke="#00ECCC" stroke-width="2"/>
<path d="M147 90L168 111" stroke="#00ECCC" stroke-width="2"/>
<path d="M100.5 139.5L124.5 152.5" stroke="#00ECCC" stroke-width="2"/>
<path d="M147.5 133.5L163.5 154.5" stroke="#00ECCC" stroke-width="2"/>
</g>
</svg>
