<svg width="14" height="15" viewBox="0 0 14 15" fill="none" xmlns="http://www.w3.org/2000/svg">
<path d="M5.43552 3.56973C9.0974 4.39365 9.71839 4.63724 9.71839 8.2333C9.71839 9.1709 10.203 11.2 8.86182 11.2789C6.54283 11.4153 3.14703 9.66522 5.62587 7.18638C6.95046 5.86179 13.2883 5.12481 13.1447 7.8526C12.9812 10.9591 7.5391 14.9904 4.57894 13.6583C1.83065 12.4215 -0.360038 4.83301 2.00922 2.71315C5.25443 -0.190457 9.85135 3.46366 9.71839 7.18638C9.64872 9.1372 4.60023 14.6705 3.72237 12.421C2.72488 9.86495 2.86579 7.16038 2.86579 4.47389C2.86579 0.737721 4.66835 1.30335 8.00524 1" stroke="#FF693A" stroke-linecap="round"/>
</svg>
