<svg width="530" height="146" viewBox="0 0 530 146" fill="none" xmlns="http://www.w3.org/2000/svg">
<path d="M4.30572 129.776L25.1919 131.786L26.4324 130.017L14.2997 120.035L32.2075 121.785L33.4756 119.978L19.357 108.32L18.2129 109.951L30.3113 119.82L30.2837 119.859L12.4791 118.125L11.1973 119.952L23.1924 129.806L23.1648 129.845L5.49107 128.086L4.30572 129.776Z" fill="white"/>
<path d="M50.5557 92.9798C50.4673 92.9051 50.2778 92.8014 50.0251 92.6632C48.3197 91.73 46.5807 91.3573 44.7659 91.5221C42.9511 91.6869 41.3596 92.4475 40.0122 93.8154C38.7828 95.0636 38.3071 96.4347 38.623 97.9233C38.9389 99.4119 39.8653 100.577 41.4233 101.429C43.0445 102.316 44.8719 102.632 46.8846 102.365C48.8762 102.086 50.5226 101.303 51.8194 99.9866C53.4361 98.3452 53.815 96.3158 52.7201 94.5325L50.9432 95.0865C51.7686 96.3538 51.6129 97.9264 50.3498 99.2088C49.474 100.098 48.3751 100.654 47.0319 100.867C45.6887 101.079 44.4255 100.914 43.2802 100.366L50.5557 92.9798ZM41.9074 99.5889C41.0568 98.9393 40.5725 98.148 40.4714 97.198C40.3492 96.2365 40.686 95.3682 41.4439 94.5988C43.1281 92.8889 45.5618 92.5891 47.8525 93.5531L41.9074 99.5889Z" fill="white"/>
<path d="M56.9702 79.6128C57.2523 77.8412 56.6714 76.4652 55.2091 75.5001L55.129 75.4472C53.9472 74.6672 52.5784 74.6462 51.7155 75.3726C50.9994 75.9754 51.0511 76.8643 51.8524 77.3931C52.6536 77.9219 53.6701 77.8483 54.3862 77.2456C54.5331 77.1219 54.6399 76.9719 54.7267 76.8086C55.4378 77.4433 55.7066 78.4203 55.533 79.7396L56.9702 79.6128Z" fill="white"/>
<path d="M69.0116 69.2391L79.1642 77.0605L80.6826 75.9655L75.7204 72.1427C74.6747 71.3371 74.0532 70.4809 73.8373 69.5306C73.6214 68.5804 74.0587 67.6979 75.1878 66.8837C75.3241 66.7854 75.5377 66.6597 75.8098 66.4919L74.2318 65.2762C74.1349 65.3177 73.9597 65.444 73.7066 65.6265C72.3829 66.5811 71.7821 68.0635 72.5258 69.7107L70.5105 68.1582L69.0116 69.2391Z" fill="white"/>
<path d="M117.705 47.606C116.528 46.3084 114.981 45.43 113.087 44.9599C111.193 44.4899 109.455 44.6402 107.891 45.4287C106.09 46.336 105.273 47.81 105.475 49.8579L99.1059 42.8364L97.4341 43.6789L110.56 58.1484L112.21 57.3168L110.404 55.3259C112.744 56.2187 114.868 56.1845 116.776 55.2232C118.34 54.4347 119.191 53.3067 119.311 51.8214C119.432 50.3361 118.914 48.9392 117.705 47.606ZM115.32 54.1695C114.141 54.7635 112.833 54.9048 111.4 54.5649C109.968 54.2249 108.792 53.5483 107.873 52.5351C106.986 51.5574 106.614 50.5275 106.745 49.3991C106.877 48.2706 107.503 47.4113 108.661 46.828C109.882 46.2124 111.169 46.0819 112.559 46.4435C113.933 46.7873 115.087 47.4747 116.022 48.5057C116.974 49.5544 117.4 50.6091 117.3 51.6696C117.221 52.7192 116.542 53.5538 115.32 54.1695Z" fill="white"/>
<path d="M138.222 38.0984C136.968 38.5819 136.049 39.2612 135.428 40.1254C134.83 40.9809 134.879 41.9115 135.604 42.9565L135.687 43.0748C136.302 43.9621 137.181 44.5732 138.33 44.8799C139.466 45.1668 140.656 45.0827 141.843 44.6251C143.545 43.969 144.423 42.7806 144.465 41.0403L144.487 41.0316L145.773 42.8851L147.475 42.229L142.755 35.4264C142.303 34.7758 141.794 34.2471 141.192 33.8294C139.477 32.6663 137.515 32.4979 135.32 33.344C132.947 34.2591 131.941 35.7963 132.304 37.9556L134.23 38.1129C134.011 36.4478 134.675 35.3174 136.22 34.7217C138.257 33.9361 139.854 34.3955 141.044 36.1109L141.537 36.8207L138.222 38.0984ZM142.672 38.4573C143.343 39.4234 143.518 40.3306 143.248 41.2094C142.978 42.0883 142.287 42.7294 141.213 43.1438C139.712 43.7222 138.158 43.4465 137.351 42.2831C136.461 40.877 137.696 39.8759 139.076 39.369L142.412 38.0827L142.672 38.4573Z" fill="white"/>
<path d="M170.593 31.4359C170.223 30.7353 169.588 30.1861 168.732 29.824C167.729 29.3827 166.4 29.2328 164.769 29.3673C162.254 29.5893 161.442 29.3614 160.95 28.4273C160.692 27.939 160.733 27.4614 161.026 26.9588C161.32 26.4562 161.829 26.111 162.497 25.9154C163.764 25.5443 165.067 25.8979 166.383 26.9828L167.466 25.808C165.708 24.2887 163.798 23.8433 161.725 24.4505C160.619 24.7743 159.797 25.3828 159.257 26.2761C158.718 27.1694 158.705 28.1043 159.22 29.0809C159.567 29.739 160.089 30.2235 160.784 30.5836C161.821 31.0886 162.864 31.1999 164.724 31.0471C167.216 30.881 168.325 31.1196 168.829 32.075C169.422 33.2002 168.582 34.2795 167.177 34.6911C165.726 35.1161 164.229 34.6968 162.696 33.4546L161.614 34.6294C163.588 36.306 165.715 36.8103 167.972 36.1492C169.239 35.7781 170.131 35.1494 170.624 34.2696C171.129 33.3619 171.119 32.4337 170.593 31.4359Z" fill="white"/>
<path d="M197.033 23.3006C197.015 23.1832 196.94 22.9806 196.84 22.7105C196.167 20.8869 195.109 19.5297 193.65 18.5938C192.192 17.658 190.518 17.3718 188.637 17.7577C186.921 18.1099 185.688 19.0169 184.97 20.4964C184.252 21.9758 184.196 23.5373 184.812 25.2033C185.452 26.9368 186.612 28.2972 188.284 29.262C189.947 30.2043 191.676 30.5034 193.487 30.1318C195.743 29.6687 197.326 28.1329 197.652 25.9346L195.972 25.359C195.776 26.9494 194.652 28.2214 192.889 28.5833C191.667 28.8342 190.491 28.6637 189.353 28.0495C188.216 27.4352 187.38 26.5411 186.877 25.3849L197.033 23.3006ZM186.351 23.8942C186.133 22.8249 186.279 21.8504 186.813 20.9659C187.337 20.0589 188.145 19.5057 189.203 19.2886C191.554 18.8061 193.56 19.9929 194.65 22.1911L186.351 23.8942Z" fill="white"/>
<path d="M214.517 19.8745C214.876 21.6628 215.732 23.131 217.084 24.2792C218.461 25.4247 220.019 25.9003 221.784 25.7033C223.907 25.4663 225.383 24.3153 226.169 22.2789L226.708 24.9613L228.521 24.759L224.673 5.6057L222.836 5.81067L224.689 15.0344C222.994 13.2749 221.16 12.5174 219.18 12.7383C217.439 12.9326 216.14 13.7512 215.279 15.1704C214.418 16.5897 214.172 18.1568 214.517 19.8745ZM221.84 24.0371C220.48 24.1888 219.313 23.838 218.317 23.0109C217.317 22.1602 216.68 21.0525 216.411 19.7113C216.132 18.323 216.301 17.1013 216.927 16.0931C217.549 15.0614 218.528 14.471 219.888 14.3193C221.176 14.1755 222.348 14.5499 223.425 15.4161C224.501 16.2823 225.176 17.3377 225.436 18.6318C225.706 19.973 225.508 21.1739 224.819 22.2371C224.154 23.2977 223.152 23.8907 221.84 24.0371Z" fill="white"/>
<path d="M266.357 5.61928C266.339 6.38707 266.948 7.01882 267.716 7.02857C268.508 7.03863 269.147 6.42272 269.164 5.65492C269.183 4.86314 268.573 4.23138 267.781 4.22133C267.013 4.21158 266.375 4.82749 266.357 5.61928ZM268.602 10.2319L266.706 10.2078L266.41 23.0204L268.305 23.0445L268.602 10.2319Z" fill="white"/>
<path d="M295.269 24.2492L296.445 16.417C296.901 13.3791 295.438 11.1903 292.376 10.9349C290.439 10.7733 288.852 11.506 287.591 13.131L287.94 10.8051L286.099 10.6514L284.195 23.3253L286.061 23.481L287.144 16.2659C287.315 15.1266 287.817 14.2072 288.648 13.5076C289.483 12.7843 290.449 12.4803 291.549 12.5721C293.845 12.7637 294.865 14.3627 294.512 16.7123L293.403 24.0936L295.269 24.2492Z" fill="white"/>
<path d="M335.763 23.0529C336.283 21.7876 337.142 20.8183 338.34 20.1449C339.571 19.4546 340.829 19.2564 342.14 19.5556C344.199 20.0257 345.029 21.4295 344.98 23.045L346.844 22.7423C346.931 20.601 345.577 18.665 342.769 18.0239C340.991 17.6179 339.224 17.87 337.5 18.7633C335.777 19.6567 334.566 20.9829 333.863 22.6921C333.143 24.4458 333.149 26.0498 333.882 27.5041C334.648 28.9415 335.908 29.8606 337.71 30.272C340.541 30.9184 343.117 29.8799 344.729 28.014L343.412 26.9847C341.956 28.595 340.258 29.1784 338.363 28.7456C337.029 28.4411 336.144 27.7292 335.676 26.6268C335.208 25.5243 335.243 24.3182 335.763 23.0529Z" fill="white"/>
<path d="M368.401 30.1567C367.122 29.7438 365.846 29.6522 364.562 29.8539C363.301 30.063 362.364 30.6967 361.725 31.7965L361.652 31.921C361.11 32.8548 361.017 33.7613 361.409 34.6271C361.813 35.4722 362.637 36.1079 363.847 36.4987C365.583 37.0591 367.363 36.7959 369.2 35.6886L369.223 35.6959L368.09 37.6465L369.825 38.2069L373.986 31.0479C374.384 30.3631 374.619 29.7245 374.681 29.1038C374.831 27.3531 373.792 26.1061 371.554 25.3835C369.133 24.6019 366.911 25.0182 364.888 26.6323L365.916 27.8512C367.514 26.642 369.101 26.2918 370.676 26.8005C372.755 27.4715 373.264 28.6956 372.215 30.5009L371.781 31.2479L368.401 30.1567ZM370.78 32.9702C370.189 33.987 369.353 34.6783 368.272 35.093C367.19 35.5077 366.095 35.524 364.999 35.1701C363.469 34.6761 362.795 33.5959 363.506 32.3716C364.419 30.9412 366.225 31.0068 367.606 31.4773L371.009 32.576L370.78 32.9702Z" fill="white"/>
<path d="M399.773 28.5506L398.016 27.8394L386.5 43.6503L388.258 44.3615L399.773 28.5506Z" fill="white"/>
<path d="M413.172 36.4868C412.674 37.0713 412.833 37.8133 413.527 38.1419C414.243 38.4808 415.212 38.273 415.71 37.6885C416.223 37.0857 416.064 36.3437 415.348 36.0048C414.654 35.6762 413.686 35.884 413.172 36.4868ZM412.324 40.9821L410.61 40.1707L402.297 49.9246L404.011 50.736L412.324 40.9821Z" fill="white"/>
<path d="M434.543 46.6572C435.025 46.9252 435.39 47.1805 435.599 47.4285L436.719 46.3081C436.418 45.9563 436.049 45.6724 435.65 45.451C433.573 44.2976 431.124 44.6267 429.088 46.6638L427.408 48.3443L425.331 47.1909L424.177 48.3452L426.254 49.4986L418.348 57.409L419.985 58.3177L427.891 50.4073L430.828 52.0384L431.982 50.8841L429.045 49.253L430.758 47.5385C432.166 46.1296 433.536 46.098 434.543 46.6572Z" fill="white"/>
<path d="M439.345 69.5067C440.892 70.5604 442.703 71.0424 444.74 70.9543C446.777 70.8661 448.54 70.2296 450.01 69.0311C451.442 67.8629 452.096 66.5272 452.03 65.0072C451.965 63.4871 451.177 62.1994 449.65 61.1593C448.083 60.0921 446.271 59.6101 444.234 59.6982C442.197 59.7863 440.454 60.4364 438.985 61.6349C437.572 62.7879 436.879 64.1253 436.944 65.6453C437.01 67.1654 437.817 68.4666 439.345 69.5067ZM440.668 68.4869C439.537 67.7169 438.957 66.7651 438.985 65.6433C439.014 64.5214 439.586 63.5197 440.646 62.6549C441.706 61.7902 442.975 61.29 444.453 61.1829C445.93 61.0759 447.215 61.3939 448.346 62.1639C449.476 62.9339 450.018 63.8874 449.99 65.0092C449.961 66.1311 449.408 67.1463 448.348 68.0111C447.288 68.8758 446.019 69.3474 444.541 69.4544C443.063 69.5614 441.779 69.2434 440.668 68.4869Z" fill="white"/>
<path d="M468.626 74.9711L457.948 82.059L459.384 83.2605L464.602 79.7962C465.702 79.0661 466.861 78.6558 468.138 78.554C469.415 78.4523 470.588 78.8337 471.655 79.7271C471.784 79.8349 471.948 80.0023 472.167 80.2158L473.827 79.1141C473.773 79.0392 473.608 78.9006 473.368 78.7003C472.117 77.6529 470.144 77.112 467.923 77.5641L470.043 76.1572L468.626 74.9711Z" fill="white"/>
<path d="M481.023 102.639L487.999 98.89C490.705 97.4358 491.289 95.1823 489.153 92.9743C487.801 91.5771 486.022 90.9338 483.799 91.0274L485.871 89.914L484.586 88.5857L473.297 94.6526L474.599 95.9981L481.025 92.5443C482.04 91.999 483.136 91.8033 484.313 91.9572C485.511 92.0998 486.484 92.5735 487.251 93.367C488.853 95.0229 488.389 96.6357 486.296 97.7604L479.722 101.294L481.023 102.639Z" fill="white"/>
<path d="M507.047 106.524C506.343 106.831 506.157 107.572 506.632 108.175C507.122 108.798 508.08 109.038 508.783 108.731C509.509 108.413 509.695 107.673 509.205 107.051C508.73 106.447 507.773 106.207 507.047 106.524ZM504.301 110.208L503.129 108.718L491.385 113.851L492.558 115.341L504.301 110.208Z" fill="white"/>
<path d="M509.962 126.733C509.242 125.598 508.318 124.709 507.199 124.037C506.093 123.385 504.963 123.263 503.763 123.686L503.627 123.734C502.609 124.093 501.955 124.72 501.7 125.628C501.468 126.528 501.694 127.54 502.375 128.614C503.353 130.154 504.894 131.098 507.021 131.44L507.034 131.46L504.907 132.21L505.884 133.75L513.693 130.997C514.44 130.734 515.032 130.401 515.479 129.971C516.72 128.74 516.722 127.128 515.461 125.142C514.098 122.994 512.119 121.881 509.522 121.805L509.53 123.389C511.539 123.499 512.987 124.253 513.874 125.652C515.044 127.496 514.649 128.751 512.68 129.445L511.865 129.732L509.962 126.733ZM509.987 130.394C508.877 130.785 507.789 130.772 506.689 130.391C505.588 130.011 504.734 129.32 504.117 128.347C503.256 126.989 503.431 125.737 504.766 125.266C506.389 124.769 507.739 125.979 508.501 127.223L510.417 130.243L509.987 130.394Z" fill="white"/>
</svg>
