<svg width="165" height="47" viewBox="0 0 165 47" fill="none" xmlns="http://www.w3.org/2000/svg">
<path fill-rule="evenodd" clip-rule="evenodd" d="M2.84556 44.7219H162.136C159.236 39.2662 153.559 35.827 147.235 35.827C143.624 35.827 140.177 36.948 137.263 39.0698L135.472 38.4384C132.689 27.854 126.973 13.7337 109.538 13.3192C101.164 13.0889 93.8909 20.8517 92.6805 25.1258L90.4258 24.8549C90.2154 18.4295 82.9088 2.2781 66.9011 2.2781C49.3744 2.2781 41.8163 23.2505 41.0117 37.348L38.941 37.9616C35.4721 33.3231 30.222 30.8347 23.7588 30.764C11.8238 30.6105 6.34821 37.4999 2.84556 44.7219ZM163.935 47H1.05046L0 45.3978C3.53576 37.5104 9.39296 28.4837 23.4232 28.4837C23.5439 28.4837 23.6634 28.4843 23.7846 28.4859C29.9414 28.5527 35.1281 30.6105 38.95 34.4691C40.5897 19.6812 48.9226 0 66.9011 0C81.8926 0 89.9315 12.9053 92.1121 21.0748C95.3314 16.1392 102.213 10.931 109.593 11.0411C127.728 11.4728 134.147 25.2415 137.274 36.3205C140.274 34.5025 143.686 33.5484 147.235 33.5484C155.086 33.5484 162.06 38.2142 165 45.4345L163.935 47Z" fill="#0E0E0E" fill-opacity="0.2"/>
</svg>
