<svg width="243" height="236" viewBox="0 0 243 236" fill="none" xmlns="http://www.w3.org/2000/svg">
<mask id="mask0" style="mask-type:alpha" maskUnits="userSpaceOnUse" x="0" y="0" width="243" height="236">
<rect x="243" y="236" width="243" height="236" transform="rotate(-180 243 236)" fill="white"/>
</mask>
<g mask="url(#mask0)">
<path d="M234.5 212.5L208.5 221.5" stroke="#FF1C63" stroke-width="2"/>
<path d="M231 1L213 27" stroke="#FF1C63" stroke-width="2"/>
<path d="M234.5 157.5L208.5 174.5" stroke="#FF1C63" stroke-width="2"/>
<path d="M236 107L210 125" stroke="#FF1C63" stroke-width="2"/>
<path d="M233 55L209 79" stroke="#FF1C63" stroke-width="2"/>
<path d="M184.5 209.5L158.5 224.5" stroke="#FF1C63" stroke-width="2"/>
<path d="M185.5 157.5L159.5 174.5" stroke="#FF1C63" stroke-width="2"/>
<path d="M178.5 2.5L163.5 30.5" stroke="#FF1C63" stroke-width="2"/>
<path d="M185 101L161 125" stroke="#FF1C63" stroke-width="2"/>
<path d="M179 51L161 77" stroke="#FF1C63" stroke-width="2"/>
<path d="M136.5 209.5L110.5 224.5" stroke="#FF1C63" stroke-width="2"/>
<path d="M126.5 2.5L117.5 30.5" stroke="#FF1C63" stroke-width="2"/>
<path d="M136 157L110 175" stroke="#FF1C63" stroke-width="2"/>
<path d="M134 103L116 129" stroke="#FF1C63" stroke-width="2"/>
<path d="M131.5 52.5L116.5 80.5" stroke="#FF1C63" stroke-width="2"/>
<path d="M86.5 209.5L60.5 224.5" stroke="#FF1C63" stroke-width="2"/>
<path d="M75 -1L69 31" stroke="#FF1C63" stroke-width="2"/>
<path d="M83 158L59 176" stroke="#FF1C63" stroke-width="2"/>
<path d="M78.5 54.5L69.5 82.5" stroke="#FF1C63" stroke-width="2"/>
<path d="M80.5 104.5L63.5 130.5" stroke="#FF1C63" stroke-width="2"/>
<path d="M35.5 209.5L9.5 224.5" stroke="#FF1C63" stroke-width="2"/>
<path d="M36 155L12 179" stroke="#FF1C63" stroke-width="2"/>
<path d="M18.9182 -1L19.0818 31" stroke="#FF1C63" stroke-width="2"/>
<path d="M29.5 99.5L12.5 127.5" stroke="#FF1C63" stroke-width="2"/>
<path d="M26.5 49.5L17.5 81.5" stroke="#FF1C63" stroke-width="2"/>
</g>
</svg>
