<svg width="161" height="160" viewBox="0 0 161 160" fill="none" xmlns="http://www.w3.org/2000/svg">
<path d="M3.5 4.5L27.5 20.5" stroke="#AE67FF" stroke-width="2"/>
<path d="M48.5 4.5L69.5 25.5" stroke="#AE67FF" stroke-width="2"/>
<path d="M97.5 2.5L113.5 26.5" stroke="#AE67FF" stroke-width="2"/>
<path d="M138 1L153 25" stroke="#AE67FF" stroke-width="2"/>
<path d="M2 54L26 69" stroke="#AE67FF" stroke-width="2"/>
<path d="M47.5 52.5L71.5 68.5" stroke="#AE67FF" stroke-width="2"/>
<path d="M93.5 48.5L114.5 69.5" stroke="#AE67FF" stroke-width="2"/>
<path d="M141.5 45.5L157.5 69.5" stroke="#AE67FF" stroke-width="2"/>
<path d="M4.5 100.5L28.5 108.5" stroke="#AE67FF" stroke-width="2"/>
<path d="M47 95L71 108" stroke="#AE67FF" stroke-width="2"/>
<path d="M91.5 93.5L115.5 109.5" stroke="#AE67FF" stroke-width="2"/>
<path d="M135.5 91.5L156.5 112.5" stroke="#AE67FF" stroke-width="2"/>
<path d="M0.5 144.5L28.5 152.5" stroke="#AE67FF" stroke-width="2"/>
<path d="M46.5 146.5L70.5 154.5" stroke="#AE67FF" stroke-width="2"/>
<path d="M92 143L116 158" stroke="#AE67FF" stroke-width="2"/>
<path d="M135.5 142.5L159.5 158.5" stroke="#AE67FF" stroke-width="2"/>
</svg>
