<svg width="250" height="247" viewBox="0 0 250 247" fill="none" xmlns="http://www.w3.org/2000/svg">
<mask id="mask0" mask-type="alpha" maskUnits="userSpaceOnUse" x="0" y="0" width="250" height="247">
<rect width="250" height="247" fill="white"/>
</mask>
<g mask="url(#mask0)">
<path d="M15.5 34.5L41.5 25.5" stroke="#FF1C63" stroke-width="2"/>
<path d="M19 246L37 220" stroke="#FF1C63" stroke-width="2"/>
<path d="M15.5 89.5L41.5 72.5" stroke="#FF1C63" stroke-width="2"/>
<path d="M14 140L40 122" stroke="#FF1C63" stroke-width="2"/>
<path d="M17 192L41 168" stroke="#FF1C63" stroke-width="2"/>
<path d="M65.5 37.5L91.5 22.5" stroke="#FF1C63" stroke-width="2"/>
<path d="M64.5 89.5L90.5 72.5" stroke="#FF1C63" stroke-width="2"/>
<path d="M71.5 244.5L86.5 216.5" stroke="#FF1C63" stroke-width="2"/>
<path d="M65 146L89 122" stroke="#FF1C63" stroke-width="2"/>
<path d="M71 196L89 170" stroke="#FF1C63" stroke-width="2"/>
<path d="M113.5 37.5L139.5 22.5" stroke="#FF1C63" stroke-width="2"/>
<path d="M123.5 244.5L132.5 216.5" stroke="#FF1C63" stroke-width="2"/>
<path d="M114 90L140 72" stroke="#FF1C63" stroke-width="2"/>
<path d="M116 144L134 118" stroke="#FF1C63" stroke-width="2"/>
<path d="M118.5 194.5L133.5 166.5" stroke="#FF1C63" stroke-width="2"/>
<path d="M163.5 37.5L189.5 22.5" stroke="#FF1C63" stroke-width="2"/>
<path d="M175 248L181 216" stroke="#FF1C63" stroke-width="2"/>
<path d="M167 89L191 71" stroke="#FF1C63" stroke-width="2"/>
<path d="M171.5 192.5L180.5 164.5" stroke="#FF1C63" stroke-width="2"/>
<path d="M169.5 142.5L186.5 116.5" stroke="#FF1C63" stroke-width="2"/>
<path d="M214.5 37.5L240.5 22.5" stroke="#FF1C63" stroke-width="2"/>
<path d="M214 92L238 68" stroke="#FF1C63" stroke-width="2"/>
<path d="M231.082 248L230.918 216" stroke="#FF1C63" stroke-width="2"/>
<path d="M220.5 147.5L237.5 119.5" stroke="#FF1C63" stroke-width="2"/>
<path d="M223.5 197.5L232.5 165.5" stroke="#FF1C63" stroke-width="2"/>
</g>
</svg>
