<svg width="204" height="247" viewBox="0 0 204 247" fill="none" xmlns="http://www.w3.org/2000/svg">
<mask id="mask0" mask-type="alpha" maskUnits="userSpaceOnUse" x="0" y="0" width="251" height="247">
<rect x="0.166016" width="250" height="247" fill="white"/>
</mask>
<g mask="url(#mask0)">
<path d="M15.666 34.5L41.666 25.5" stroke="#FF1C63" stroke-width="2"/>
<path d="M19.166 246L37.166 220" stroke="#FF1C63" stroke-width="2"/>
<path d="M15.666 89.5L41.666 72.5" stroke="#FF1C63" stroke-width="2"/>
<path d="M14.166 140L40.166 122" stroke="#FF1C63" stroke-width="2"/>
<path d="M17.166 192L41.166 168" stroke="#FF1C63" stroke-width="2"/>
<path d="M65.666 37.5L91.666 22.5" stroke="#FF1C63" stroke-width="2"/>
<path d="M64.666 89.5L90.666 72.5" stroke="#FF1C63" stroke-width="2"/>
<path d="M71.666 244.5L86.666 216.5" stroke="#FF1C63" stroke-width="2"/>
<path d="M65.166 146L89.166 122" stroke="#FF1C63" stroke-width="2"/>
<path d="M71.166 196L89.166 170" stroke="#FF1C63" stroke-width="2"/>
<path d="M113.666 37.5L139.666 22.5" stroke="#FF1C63" stroke-width="2"/>
<path d="M123.666 244.5L132.666 216.5" stroke="#FF1C63" stroke-width="2"/>
<path d="M114.166 90L140.166 72" stroke="#FF1C63" stroke-width="2"/>
<path d="M116.166 144L134.166 118" stroke="#FF1C63" stroke-width="2"/>
<path d="M118.666 194.5L133.666 166.5" stroke="#FF1C63" stroke-width="2"/>
<path d="M163.666 37.5L189.666 22.5" stroke="#FF1C63" stroke-width="2"/>
<path d="M175.166 248L181.166 216" stroke="#FF1C63" stroke-width="2"/>
<path d="M167.166 89L191.166 71" stroke="#FF1C63" stroke-width="2"/>
<path d="M171.666 192.5L180.666 164.5" stroke="#FF1C63" stroke-width="2"/>
<path d="M169.666 142.5L186.666 116.5" stroke="#FF1C63" stroke-width="2"/>
</g>
</svg>
