<svg width="215" height="216" viewBox="0 0 215 216" fill="none" xmlns="http://www.w3.org/2000/svg">
<mask id="mask0" style="mask-type:alpha" maskUnits="userSpaceOnUse" x="0" y="0" width="215" height="216">
<rect width="215" height="216" fill="white"/>
</mask>
<g mask="url(#mask0)">
<path d="M7.5 52.5L35.5 57.5" stroke="#00ECCC" stroke-width="2"/>
<path d="M7.5 103.5L35.5 98.5" stroke="#00ECCC" stroke-width="2"/>
<path d="M12 150L36 142" stroke="#00ECCC" stroke-width="2"/>
<path d="M53.5 149.5L81.5 144.5" stroke="#00ECCC" stroke-width="2"/>
<path d="M12.5 198.5L33.5 182.5" stroke="#00ECCC" stroke-width="2"/>
<path d="M96.5 144.5L124.5 149.5" stroke="#00ECCC" stroke-width="2"/>
<path d="M53.5 100.202L81.5 101.798" stroke="#00ECCC" stroke-width="2"/>
<path d="M54.5 199.5L78.5 184.5" stroke="#00ECCC" stroke-width="2"/>
<path d="M96.5 196.5L124.5 191.5" stroke="#00ECCC" stroke-width="2"/>
<path d="M8 5L36 13" stroke="#00ECCC" stroke-width="2"/>
<path d="M54 7L78 15" stroke="#00ECCC" stroke-width="2"/>
<path d="M99.5 3.5L123.5 18.5" stroke="#00ECCC" stroke-width="2"/>
<path d="M143 3L167 19" stroke="#00ECCC" stroke-width="2"/>
<path d="M191 -3L207 21" stroke="#00ECCC" stroke-width="2"/>
<path d="M53.5 52.5L81.5 57.5" stroke="#00ECCC" stroke-width="2"/>
<path d="M100 53L124 61" stroke="#00ECCC" stroke-width="2"/>
<path d="M144.5 49.5L168.5 64.5" stroke="#00ECCC" stroke-width="2"/>
<path d="M190.5 44.5L206.5 65.5" stroke="#00ECCC" stroke-width="2"/>
<path d="M96 96L124 104" stroke="#00ECCC" stroke-width="2"/>
<path d="M142.5 94.5L166.5 109.5" stroke="#00ECCC" stroke-width="2"/>
<path d="M190 90L211 111" stroke="#00ECCC" stroke-width="2"/>
<path d="M143.5 139.5L167.5 152.5" stroke="#00ECCC" stroke-width="2"/>
<path d="M190.5 133.5L206.5 154.5" stroke="#00ECCC" stroke-width="2"/>
<path d="M143.5 185.5L167.5 198.5" stroke="#00ECCC" stroke-width="2"/>
<path d="M191.5 177.5L206.5 201.5" stroke="#00ECCC" stroke-width="2"/>
</g>
</svg>
