<svg width="218" height="300" viewBox="0 0 218 300" fill="none" xmlns="http://www.w3.org/2000/svg">
<mask id="mask0" mask-type="alpha" maskUnits="userSpaceOnUse" x="0" y="0" width="218" height="300">
<rect width="218" height="300" fill="white"/>
</mask>
<g mask="url(#mask0)">
<path d="M58.3047 173.528L90.7481 179.312" stroke="#00E1B9" stroke-width="2"/>
<path d="M10.7988 177.619L43.2422 175.221" stroke="#00E1B9" stroke-width="2"/>
<path d="M11.377 231.941L43.8204 222.687" stroke="#00E1B9" stroke-width="2"/>
<path d="M58.3047 232.519L90.7481 226.736" stroke="#00E1B9" stroke-width="2"/>
<path d="M11.377 287.462L38.0269 272.425" stroke="#00E1B9" stroke-width="2"/>
<path d="M62.9395 284.57L89.5894 275.317" stroke="#00E1B9" stroke-width="2"/>
<path d="M110.445 284.57L142.889 278.787" stroke="#00E1B9" stroke-width="2"/>
<path d="M159.111 278.787L191.555 284.57" stroke="#00E1B9" stroke-width="2"/>
<path d="M110.445 228.704L142.889 230.551" stroke="#00E1B9" stroke-width="2"/>
<path d="M11.377 12.1701L38.0269 27.207" stroke="#00E1B9" stroke-width="2"/>
<path d="M61.2012 16.7969L87.8511 34.1472" stroke="#00E1B9" stroke-width="2"/>
<path d="M112.764 15.0618L139.414 33.5688" stroke="#00E1B9" stroke-width="2"/>
<path d="M164.324 11.0134L188.657 35.3038" stroke="#00E1B9" stroke-width="2"/>
<path d="M11.377 70.0044L43.8204 79.2579" stroke="#00E1B9" stroke-width="2"/>
<path d="M62.9395 70.5828L89.5894 79.8363" stroke="#00E1B9" stroke-width="2"/>
<path d="M111.025 64.221L137.675 79.2579" stroke="#00E1B9" stroke-width="2"/>
<path d="M162.588 62.4859L189.238 80.9929" stroke="#00E1B9" stroke-width="2"/>
<path d="M212.99 60.7509L237.323 85.0414" stroke="#00E1B9" stroke-width="2"/>
<path d="M10.7988 123.79L43.2422 129.574" stroke="#00E1B9" stroke-width="2"/>
<path d="M58.8848 119.742L91.3282 128.996" stroke="#00E1B9" stroke-width="2"/>
<path d="M111.604 122.634L138.253 131.887" stroke="#00E1B9" stroke-width="2"/>
<path d="M163.166 118.585L189.816 135.936" stroke="#00E1B9" stroke-width="2"/>
<path d="M212.41 118.007L239.06 136.514" stroke="#00E1B9" stroke-width="2"/>
<path d="M110.445 174.685L142.889 180.468" stroke="#00E1B9" stroke-width="2"/>
<path d="M163.746 174.685L190.396 183.938" stroke="#00E1B9" stroke-width="2"/>
<path d="M214.148 170.636L240.798 187.987" stroke="#00E1B9" stroke-width="2"/>
<path d="M158.531 222.687L190.975 231.941" stroke="#00E1B9" stroke-width="2"/>
<path d="M211.832 221.531L238.482 238.881" stroke="#00E1B9" stroke-width="2"/>
<path d="M212.99 272.425L239.64 287.462" stroke="#00E1B9" stroke-width="2"/>
</g>
</svg>
