<svg width="207" height="558" viewBox="0 0 207 558" fill="none" xmlns="http://www.w3.org/2000/svg">
<mask id="mask0" mask-type="alpha" maskUnits="userSpaceOnUse" x="0" y="0" width="251" height="558">
<rect x="0.378906" width="250" height="558" fill="white"/>
</mask>
<g mask="url(#mask0)">
<path d="M46.8789 336.5L84.8789 343.5" stroke="#FF1C63" stroke-width="2"/>
<path d="M-9.12109 341.451L28.8789 338.549" stroke="#FF1C63" stroke-width="2"/>
<path d="M-8.12109 405.5L29.8789 394.5" stroke="#FF1C63" stroke-width="2"/>
<path d="M46.8789 405.5L84.8789 398.5" stroke="#FF1C63" stroke-width="2"/>
<path d="M-8.12109 470.5L22.8789 452.5" stroke="#FF1C63" stroke-width="2"/>
<path d="M-8.62109 536L20.3789 507" stroke="#FF1C63" stroke-width="2"/>
<path d="M52.3789 467L83.3789 456" stroke="#FF1C63" stroke-width="2"/>
<path d="M107.879 466.5L145.879 459.5" stroke="#FF1C63" stroke-width="2"/>
<path d="M53.8789 532.5L82.8789 510.5" stroke="#FF1C63" stroke-width="2"/>
<path d="M165.879 459.5L203.879 466.5" stroke="#FF1C63" stroke-width="2"/>
<path d="M107.879 400.882L145.879 403.118" stroke="#FF1C63" stroke-width="2"/>
<path d="M110.879 532.5L141.879 512.5" stroke="#FF1C63" stroke-width="2"/>
<path d="M165.879 529.5L203.879 522.5" stroke="#FF1C63" stroke-width="2"/>
<path d="M-8.62109 26L20.3789 55" stroke="#FF1C63" stroke-width="2"/>
<path d="M54.3789 26L83.3789 55" stroke="#FF1C63" stroke-width="2"/>
<path d="M113.879 24.5L135.879 55.5" stroke="#FF1C63" stroke-width="2"/>
<path d="M-8.12109 87.5L22.8789 109.5" stroke="#FF1C63" stroke-width="2"/>
<path d="M52.8789 87.5L83.8789 109.5" stroke="#FF1C63" stroke-width="2"/>
<path d="M111.379 87L140.379 116" stroke="#FF1C63" stroke-width="2"/>
<path d="M175.879 85.5L197.879 116.5" stroke="#FF1C63" stroke-width="2"/>
<path d="M-8.12109 146.5L22.8789 164.5" stroke="#FF1C63" stroke-width="2"/>
<path d="M50.8789 152.5L81.8789 172.5" stroke="#FF1C63" stroke-width="2"/>
<path d="M110.879 150.5L141.879 172.5" stroke="#FF1C63" stroke-width="2"/>
<path d="M171.379 145L200.379 174" stroke="#FF1C63" stroke-width="2"/>
<path d="M-8.12109 214.5L29.8789 225.5" stroke="#FF1C63" stroke-width="2"/>
<path d="M52.3789 216L83.3789 227" stroke="#FF1C63" stroke-width="2"/>
<path d="M108.879 208.5L139.879 226.5" stroke="#FF1C63" stroke-width="2"/>
<path d="M169.879 206.5L200.879 228.5" stroke="#FF1C63" stroke-width="2"/>
<path d="M-9.12109 277.5L28.8789 284.5" stroke="#FF1C63" stroke-width="2"/>
<path d="M47.8789 273.5L85.8789 284.5" stroke="#FF1C63" stroke-width="2"/>
<path d="M109.379 277L140.379 288" stroke="#FF1C63" stroke-width="2"/>
<path d="M169.879 272.5L200.879 292.5" stroke="#FF1C63" stroke-width="2"/>
<path d="M107.879 337.5L145.879 344.5" stroke="#FF1C63" stroke-width="2"/>
<path d="M171.379 338L202.379 349" stroke="#FF1C63" stroke-width="2"/>
<path d="M164.879 394.5L202.879 405.5" stroke="#FF1C63" stroke-width="2"/>
<path d="M174.879 22.5L194.879 53.5" stroke="#FF1C63" stroke-width="2"/>
</g>
</svg>
