<svg width="134" height="140" viewBox="0 0 134 140" fill="none" xmlns="http://www.w3.org/2000/svg">
<path d="M89.6589 102.168C91.605 105.954 97.2687 105.944 99.9131 102.625C102.776 99.0302 100.271 94.0511 96.6477 92.5001C92.6303 90.7832 87.7259 93.7088 86.885 98.1257C86.0441 102.543 89.9901 106.237 94.2091 105.537C95.3417 105.351 94.8989 103.612 93.7797 103.801C90.6033 104.325 87.8219 101.154 88.7184 97.9792C89.615 94.8046 93.2841 92.86 96.2002 94.2964C98.4809 95.4175 100.329 98.4979 98.8542 101.061C97.2354 103.865 92.6627 104.062 91.2041 101.242C90.678 100.223 89.1269 101.15 89.6515 102.164L89.6589 102.168Z" fill="#10100E"/>
<path d="M53.6589 47.1681C55.605 50.954 61.2687 50.9436 63.9131 47.6247C66.7761 44.0302 64.2706 39.0511 60.6477 37.5001C56.6303 35.7832 51.7259 38.7088 50.885 43.1257C50.0441 47.5426 53.9901 51.2369 58.2091 50.5367C59.3417 50.3512 58.8989 48.6125 57.7797 48.8005C54.6033 49.3251 51.8219 46.1538 52.7184 42.9792C53.615 39.8046 57.2841 37.86 60.2002 39.2964C62.4809 40.4175 64.3289 43.4979 62.8542 46.0607C61.2354 48.8646 56.6627 49.0619 55.2041 46.2424C54.678 45.2229 53.1269 46.1503 53.6515 47.1638L53.6589 47.1681Z" fill="#10100E"/>
<path d="M30.7422 102.636H46.8742C48.0676 102.636 48.0722 101.066 46.8742 101.066H30.7422C29.5443 101.066 29.5443 102.636 30.7422 102.636Z" fill="#10100E"/>
<path d="M38.0433 109.127V93.6813C38.0433 92.4673 36.4844 92.4673 36.4844 93.6813V109.127C36.4844 110.346 38.0433 110.346 38.0433 109.127Z" fill="#10100E"/>
<path d="M106.659 45.1681C108.605 48.954 114.269 48.9436 116.913 45.6247C119.776 42.0302 117.271 37.0511 113.648 35.5001C109.63 33.7832 104.726 36.7088 103.885 41.1257C103.044 45.5426 106.99 49.2369 111.209 48.5367C112.342 48.3512 111.899 46.6125 110.78 46.8005C107.603 47.3251 104.822 44.1538 105.718 40.9792C106.615 37.8046 110.284 35.86 113.2 37.2964C115.481 38.4175 117.329 41.4979 115.854 44.0607C114.235 46.8646 109.663 47.0619 108.204 44.2424C107.678 43.2229 106.127 44.1503 106.652 45.1638L106.659 45.1681Z" fill="#10100E"/>
<path d="M89.6484 93.8923C89.6484 93.8923 65.7038 71.08 58.3472 48.1077" stroke="black" stroke-width="2"/>
</svg>
