<svg width="130" height="135" viewBox="0 0 130 135" fill="none" xmlns="http://www.w3.org/2000/svg">
<path d="M19.9895 88.3494C18.5326 92.8957 23.0305 97.3813 27.7563 96.8475C32.8737 96.2687 34.8325 90.3321 33.1894 86.2277C31.3651 81.6786 25.1594 80.1073 20.9933 82.9428C16.8273 85.7783 17.0283 91.8388 20.9275 94.631C21.9723 95.3826 22.9989 93.6524 21.9627 92.9135C19.0291 90.8093 19.3368 86.0875 22.5627 84.2813C25.7886 82.4751 30.2379 83.8443 31.4115 87.2971C32.3312 89.9957 31.3555 93.9048 28.1561 94.7671C24.6513 95.7062 20.8701 92.2345 21.9477 88.8413C22.3385 87.6154 20.3741 87.1202 19.987 88.3401L19.9895 88.3494Z" fill="#10100E"/>
<path d="M65.9489 17.6016C64.0283 23.5952 69.958 29.5087 76.1883 28.805C82.9348 28.0419 85.5171 20.2154 83.351 14.8044C80.9459 8.80709 72.7646 6.73564 67.2724 10.4738C61.7801 14.2119 62.0451 22.2017 67.1856 25.8828C68.563 26.8737 69.9164 24.5927 68.5503 23.6186C64.6828 20.8446 65.0885 14.6196 69.3414 12.2384C73.5942 9.85723 79.4599 11.6623 81.0071 16.2143C82.2196 19.772 80.9333 24.9255 76.7154 26.0623C72.0948 27.3004 67.1099 22.7235 68.5306 18.25C69.0457 16.6338 66.456 15.981 65.9456 17.5893L65.9489 17.6016Z" fill="#10100E"/>
<path d="M99.5176 96.1974C96.8249 104.601 105.138 112.891 113.874 111.905C123.332 110.835 126.953 99.8621 123.916 92.2757C120.544 83.8673 109.073 80.963 101.373 86.204C93.6728 91.445 94.0443 102.647 101.252 107.808C103.183 109.197 105.08 105.999 103.165 104.633C97.7425 100.744 98.3113 92.0166 104.274 88.6781C110.237 85.3396 118.46 87.8703 120.63 94.2523C122.329 99.2403 120.526 106.466 114.612 108.059C108.134 109.795 101.145 103.378 103.137 97.1065C103.859 94.8406 100.229 93.9252 99.513 96.1802L99.5176 96.1974Z" fill="#10100E"/>
<path d="M30.4896 83.2282C30.4896 83.2282 58.1542 51.6955 68.9038 25.4775" stroke="black" stroke-width="2"/>
</svg>
