<svg width="94" height="98" viewBox="0 0 94 98" fill="none" xmlns="http://www.w3.org/2000/svg">
<path d="M13.7291 63.9502C12.6601 67.2861 15.9604 70.5774 19.428 70.1857C23.1829 69.761 24.6201 65.405 23.4145 62.3934C22.0759 59.0555 17.5225 57.9026 14.4656 59.9831C11.4088 62.0636 11.5563 66.5105 14.4174 68.5593C15.184 69.1108 15.9372 67.8413 15.1769 67.2991C13.0244 65.7552 13.2502 62.2905 15.6172 60.9652C17.9842 59.6399 21.2489 60.6446 22.11 63.1781C22.7848 65.1582 22.0689 68.0265 19.7213 68.6592C17.1497 69.3483 14.3752 66.8009 15.1659 64.3111C15.4526 63.4116 14.0113 63.0482 13.7272 63.9434L13.7291 63.9502Z" fill="#10100E"/>
<path d="M47.4544 12.0388C46.0451 16.4366 50.3961 20.7757 54.9676 20.2594C59.9178 19.6994 61.8126 13.9567 60.2232 9.98639C58.4585 5.58582 52.4555 4.06589 48.4255 6.80875C44.3955 9.55162 44.5899 15.4142 48.3618 18.1152C49.3725 18.8422 50.3655 17.1686 49.3632 16.4538C46.5254 14.4183 46.8231 9.85077 49.9436 8.10357C53.0642 6.35636 57.3681 7.68081 58.5034 11.0209C59.393 13.6313 58.4492 17.4127 55.3543 18.2469C51.964 19.1553 48.3063 15.797 49.3487 12.5146C49.7267 11.3287 47.8265 10.8497 47.452 12.0298L47.4544 12.0388Z" fill="#10100E"/>
<path d="M72.0854 69.7086C70.1095 75.8745 76.2097 81.958 82.619 81.2341C89.5594 80.449 92.216 72.3976 89.9876 66.8311C87.5134 60.6614 79.097 58.5304 73.4468 62.376C67.7967 66.2216 68.0693 74.441 73.3576 78.2279C74.7746 79.2472 76.1668 76.9007 74.7615 75.8986C70.7829 73.0448 71.2002 66.641 75.5753 64.1914C79.9504 61.7417 85.9847 63.5986 87.5763 68.2815C88.8236 71.9414 87.5004 77.2431 83.1612 78.4125C78.4079 79.6862 73.2797 74.9778 74.7413 70.3757C75.2712 68.7131 72.6071 68.0415 72.082 69.696L72.0854 69.7086Z" fill="#10100E"/>
<path d="M21.4346 60.1924C21.4346 60.1924 41.7336 37.0553 49.6211 17.8178" stroke="black" stroke-width="2"/>
</svg>
