<svg width="174" height="55" viewBox="0 0 174 55" fill="none" xmlns="http://www.w3.org/2000/svg">
<path fill-rule="evenodd" clip-rule="evenodd" d="M3.36966 51.9287H169.866C166.58 46.7574 160.609 41.8313 153.832 41.8313C153.787 41.8313 153.748 41.8319 153.71 41.8319C150.68 41.8575 147.4 42.9629 145.907 44.4602L143.684 43.7673C138.803 16.4657 126.721 2.6225 107.771 2.6225C85.2023 2.6225 77.7327 18.4465 73.3957 33.9254L70.91 34.0394C67.7198 25.6807 61.3648 20.6957 53.908 20.6957C53.8952 20.6957 53.8761 20.6957 53.8633 20.6957C34.8113 20.7495 32.268 39.5706 31.9541 43.3427L30.0386 44.3949C27.1751 42.8956 23.9463 42.1022 20.6919 42.1022C13.5683 42.1022 6.97634 45.8986 3.36966 51.9287ZM172.121 54.5518H1.19154L0 52.6889C3.72199 44.6651 11.845 39.4803 20.6919 39.4803C23.7285 39.4803 26.7586 40.0938 29.5453 41.2671C31.0764 30.1988 38.1873 18.1174 53.8569 18.0732C53.8697 18.0732 53.8888 18.0732 53.908 18.0732C61.4353 18.0732 67.944 22.3844 71.8581 29.7876C75.2086 18.7578 82.9921 0 107.771 0C127.393 0 140.539 14.2448 145.875 41.2299C147.983 40.0042 150.866 39.2331 153.691 39.2094C153.736 39.2094 153.78 39.2088 153.825 39.2088C162.551 39.2088 170.02 46.1592 173.287 52.6511L172.121 54.5518Z" fill="#2C2C2C" fill-opacity="0.19"/>
</svg>
