<svg width="257" height="265" viewBox="0 0 257 265" fill="none" xmlns="http://www.w3.org/2000/svg">
<mask id="mask0" mask-type="alpha" maskUnits="userSpaceOnUse" x="0" y="0" width="265" height="265">
<rect width="265" height="265" fill="white"/>
</mask>
<g mask="url(#mask0)">
<path d="M15 -3L44 26" stroke="#9C43FF" stroke-width="2"/>
<path d="M79.5 -4.5L101.5 26.5" stroke="#9C43FF" stroke-width="2"/>
<path d="M136 -5L156 29" stroke="#9C43FF" stroke-width="2"/>
<path d="M203.5 -5.5L214.5 28.5" stroke="#9C43FF" stroke-width="2"/>
<path d="M13.5 58.5L44.5 80.5" stroke="#9C43FF" stroke-width="2"/>
<path d="M72 56L101 85" stroke="#9C43FF" stroke-width="2"/>
<path d="M136.5 56.5L156.5 87.5" stroke="#9C43FF" stroke-width="2"/>
<path d="M196 56L214 90" stroke="#9C43FF" stroke-width="2"/>
<path d="M13.5 124.5L44.5 144.5" stroke="#9C43FF" stroke-width="2"/>
<path d="M71.5 123.5L102.5 145.5" stroke="#9C43FF" stroke-width="2"/>
<path d="M135.5 116.5L157.5 147.5" stroke="#9C43FF" stroke-width="2"/>
<path d="M196 117L214 151" stroke="#9C43FF" stroke-width="2"/>
<path d="M15 190L46 201" stroke="#9C43FF" stroke-width="2"/>
<path d="M73.5 185.5L104.5 205.5" stroke="#9C43FF" stroke-width="2"/>
<path d="M134.5 177.5L156.5 206.5" stroke="#9C43FF" stroke-width="2"/>
<path d="M196 178L214 212" stroke="#9C43FF" stroke-width="2"/>
<path d="M8.5 246.5L46.5 257.5" stroke="#9C43FF" stroke-width="2"/>
<path d="M71.5 245.5L102.5 265.5" stroke="#9C43FF" stroke-width="2"/>
<path d="M135 239L164 268" stroke="#9C43FF" stroke-width="2"/>
<path d="M196 235L214 269" stroke="#9C43FF" stroke-width="2"/>
</g>
</svg>
