<svg width="218" height="245" viewBox="0 0 218 245" fill="none" xmlns="http://www.w3.org/2000/svg">
<mask id="mask0" mask-type="alpha" maskUnits="userSpaceOnUse" x="0" y="0" width="218" height="245">
<rect width="218" height="245" fill="white"/>
</mask>
<g mask="url(#mask0)">
<path d="M49.3047 55.528L81.7481 61.3114" stroke="#00E1B9" stroke-width="2"/>
<path d="M1.79883 59.6189L34.2422 57.2205" stroke="#00E1B9" stroke-width="2"/>
<path d="M2.37695 113.941L34.8204 104.687" stroke="#00E1B9" stroke-width="2"/>
<path d="M49.3047 114.519L81.7481 108.736" stroke="#00E1B9" stroke-width="2"/>
<path d="M2.37695 169.462L29.0269 154.425" stroke="#00E1B9" stroke-width="2"/>
<path d="M2.37695 224.983L26.7095 200.692" stroke="#00E1B9" stroke-width="2"/>
<path d="M53.9395 166.57L80.5894 157.317" stroke="#00E1B9" stroke-width="2"/>
<path d="M101.445 166.57L133.889 160.787" stroke="#00E1B9" stroke-width="2"/>
<path d="M55.0977 222.091L79.4302 203.584" stroke="#00E1B9" stroke-width="2"/>
<path d="M150.111 160.787L182.555 166.57" stroke="#00E1B9" stroke-width="2"/>
<path d="M101.445 110.704L133.889 112.551" stroke="#00E1B9" stroke-width="2"/>
<path d="M103.184 222.669L129.834 205.319" stroke="#00E1B9" stroke-width="2"/>
<path d="M150.111 219.778L182.555 213.994" stroke="#00E1B9" stroke-width="2"/>
<path d="M1.79883 5.79041L34.2422 11.5739" stroke="#00E1B9" stroke-width="2"/>
<path d="M49.8848 1.74198L82.3282 10.9955" stroke="#00E1B9" stroke-width="2"/>
<path d="M102.604 4.6337L129.253 13.8872" stroke="#00E1B9" stroke-width="2"/>
<path d="M154.166 0.58535L180.816 17.9357" stroke="#00E1B9" stroke-width="2"/>
<path d="M203.41 0.00697136L230.06 18.514" stroke="#00E1B9" stroke-width="2"/>
<path d="M101.445 56.6847L133.889 62.4681" stroke="#00E1B9" stroke-width="2"/>
<path d="M154.746 56.6847L181.396 65.9382" stroke="#00E1B9" stroke-width="2"/>
<path d="M205.148 52.6363L231.798 69.9866" stroke="#00E1B9" stroke-width="2"/>
<path d="M149.531 104.687L181.975 113.941" stroke="#00E1B9" stroke-width="2"/>
<path d="M202.832 103.531L229.482 120.881" stroke="#00E1B9" stroke-width="2"/>
<path d="M203.99 154.425L230.64 169.462" stroke="#00E1B9" stroke-width="2"/>
<path d="M203.99 206.476L230.64 221.513" stroke="#00E1B9" stroke-width="2"/>
</g>
</svg>
