<svg width="148" height="164" viewBox="0 0 148 164" fill="none" xmlns="http://www.w3.org/2000/svg">
<path d="M93.1709 116.545C95.6729 121.413 102.955 121.399 106.355 117.132C110.036 112.511 106.814 106.109 102.156 104.115C96.9912 101.907 90.6855 105.669 89.6044 111.348C88.5233 117.027 93.5966 121.776 99.0211 120.876C100.477 120.638 99.908 118.402 98.469 118.644C94.3851 119.318 90.809 115.241 91.9616 111.159C93.1143 107.078 97.8318 104.578 101.581 106.424C104.513 107.866 106.889 111.826 104.993 115.121C102.912 118.726 97.0328 118.98 95.1575 115.355C94.4811 114.044 92.4868 115.236 93.1613 116.54L93.1709 116.545Z" fill="#10100E"/>
<path d="M47.4765 46.5337C49.8395 51.1308 56.7169 51.1183 59.928 47.0881C63.4045 42.7235 60.362 36.6773 55.9629 34.7941C51.0846 32.7092 45.1292 36.2617 44.1082 41.6251C43.0871 46.9884 47.8786 51.4744 53.0017 50.6241C54.377 50.3989 53.8393 48.2876 52.4802 48.5159C48.6232 49.153 45.2458 45.3021 46.3344 41.4472C47.4231 37.5923 51.8785 35.231 55.4194 36.9753C58.1889 38.3366 60.4329 42.0771 58.6422 45.189C56.6765 48.5937 51.1239 48.8334 49.3527 45.4096C48.7139 44.1716 46.8305 45.2978 47.4675 46.5285L47.4765 46.5337Z" fill="#10100E"/>
<path d="M17.9185 117.341H38.4783C39.9993 117.341 40.0051 115.35 38.4783 115.35H17.9185C16.3917 115.35 16.3917 117.341 17.9185 117.341Z" fill="#10100E"/>
<path d="M27.2211 125.57V105.988C27.2211 104.449 25.2344 104.449 25.2344 105.988V125.57C25.2344 127.115 27.2211 127.115 27.2211 125.57Z" fill="#10100E"/>
<path d="M114.469 43.7796C116.832 48.3767 123.709 48.3641 126.92 44.334C130.397 39.9693 127.354 33.9232 122.955 32.0399C118.077 29.955 112.121 33.5076 111.1 38.8709C110.079 44.2343 114.871 48.7202 119.994 47.8699C121.369 47.6447 120.831 45.5334 119.472 45.7618C115.615 46.3988 112.238 42.548 113.327 38.6931C114.415 34.8382 118.871 32.4769 122.412 34.2211C125.181 35.5824 127.425 39.3229 125.634 42.4348C123.669 45.8396 118.116 46.0792 116.345 42.6555C115.706 41.4175 113.823 42.5437 114.46 43.7743L114.469 43.7796Z" fill="#10100E"/>
<path d="M92.7891 105.857C92.7891 105.857 62.7421 76.8998 53.7295 47.5101" stroke="black" stroke-width="2"/>
</svg>
