<svg width="557" height="584" viewBox="0 0 557 584" fill="none" xmlns="http://www.w3.org/2000/svg">
<mask id="mask0" mask-type="alpha" maskUnits="userSpaceOnUse" x="0" y="0" width="557" height="584">
<rect width="557" height="584" fill="white"/>
</mask>
<g mask="url(#mask0)">
<path d="M43 257L80 264" stroke="#FF55D6" stroke-width="2"/>
<path d="M155 257L192 264" stroke="#FF55D6" stroke-width="2"/>
<path d="M101 257L138 264" stroke="#FF55D6" stroke-width="2"/>
<path d="M331 318L368 325" stroke="#FF55D6" stroke-width="2"/>
<path d="M-14 323.265L23 319.735" stroke="#FF55D6" stroke-width="2"/>
<path d="M-14 385L23 378" stroke="#FF55D6" stroke-width="2"/>
<path d="M-15.5 444.5L21.5 434.5" stroke="#FF55D6" stroke-width="2"/>
<path d="M43 325L80 318" stroke="#FF55D6" stroke-width="2"/>
<path d="M-11 508L20 491" stroke="#FF55D6" stroke-width="2"/>
<path d="M-12 564L19 545" stroke="#FF55D6" stroke-width="2"/>
<path d="M44.5 385.5L81.5 375.5" stroke="#FF55D6" stroke-width="2"/>
<path d="M101 325L138 318" stroke="#FF55D6" stroke-width="2"/>
<path d="M43.5 445.5L74.5 435.5" stroke="#FF55D6" stroke-width="2"/>
<path d="M45 509L76 490" stroke="#FF55D6" stroke-width="2"/>
<path d="M43 567L74 546" stroke="#FF55D6" stroke-width="2"/>
<path d="M99.5 385.5L136.5 375.5" stroke="#FF55D6" stroke-width="2"/>
<path d="M155 325L192 318" stroke="#FF55D6" stroke-width="2"/>
<path d="M103 449L134 432" stroke="#FF55D6" stroke-width="2"/>
<path d="M101 509L132 490" stroke="#FF55D6" stroke-width="2"/>
<path d="M154.5 385.5L191.5 375.5" stroke="#FF55D6" stroke-width="2"/>
<path d="M103 576L130 549" stroke="#FF55D6" stroke-width="2"/>
<path d="M216 325L253 318" stroke="#FF55D6" stroke-width="2"/>
<path d="M-14 257L23 264" stroke="#FF55D6" stroke-width="2"/>
<path d="M159 449L190 432" stroke="#FF55D6" stroke-width="2"/>
<path d="M275 322.951L312 320.049" stroke="#FF55D6" stroke-width="2"/>
<path d="M217.5 385.5L254.5 375.5" stroke="#FF55D6" stroke-width="2"/>
<path d="M159 510L190 489" stroke="#FF55D6" stroke-width="2"/>
<path d="M161 572L182 541" stroke="#FF55D6" stroke-width="2"/>
<path d="M215 449L246 432" stroke="#FF55D6" stroke-width="2"/>
<path d="M275.5 385.5L312.5 375.5" stroke="#FF55D6" stroke-width="2"/>
<path d="M222 508L249 487" stroke="#FF55D6" stroke-width="2"/>
<path d="M226 572L245 541" stroke="#FF55D6" stroke-width="2"/>
<path d="M216 257L253 264" stroke="#FF55D6" stroke-width="2"/>
<path d="M331 385L368 378" stroke="#FF55D6" stroke-width="2"/>
<path d="M276 449L307 432" stroke="#FF55D6" stroke-width="2"/>
<path d="M278 511L305 484" stroke="#FF55D6" stroke-width="2"/>
<path d="M337.5 445.5L368.5 435.5" stroke="#FF55D6" stroke-width="2"/>
<path d="M283.5 578.5L302.5 544.5" stroke="#FF55D6" stroke-width="2"/>
<path d="M390 445L427 438" stroke="#FF55D6" stroke-width="2"/>
<path d="M337 508L364 487" stroke="#FF55D6" stroke-width="2"/>
<path d="M341.5 577.5L358.5 543.5" stroke="#FF55D6" stroke-width="2"/>
<path d="M446 438L483 445" stroke="#FF55D6" stroke-width="2"/>
<path d="M390 380.382L427 382.618" stroke="#FF55D6" stroke-width="2"/>
<path d="M391 509L422 490" stroke="#FF55D6" stroke-width="2"/>
<path d="M446 505L483 498" stroke="#FF55D6" stroke-width="2"/>
<path d="M400.5 577.5L417.5 543.5" stroke="#FF55D6" stroke-width="2"/>
<path d="M450 567L481 546" stroke="#FF55D6" stroke-width="2"/>
<path d="M215 132L246 149" stroke="#FF55D6" stroke-width="2"/>
<path d="M-11 14L20 35" stroke="#FF55D6" stroke-width="2"/>
<path d="M43 14L74 35" stroke="#FF55D6" stroke-width="2"/>
<path d="M103 14L134 35" stroke="#FF55D6" stroke-width="2"/>
<path d="M159 14L190 35" stroke="#FF55D6" stroke-width="2"/>
<path d="M222 13L249 34" stroke="#FF55D6" stroke-width="2"/>
<path d="M278 14L305 41" stroke="#FF55D6" stroke-width="2"/>
<path d="M339 14L366 41" stroke="#FF55D6" stroke-width="2"/>
<path d="M395 11L416 42" stroke="#FF55D6" stroke-width="2"/>
<path d="M45 75L76 94" stroke="#FF55D6" stroke-width="2"/>
<path d="M104 75L135 94" stroke="#FF55D6" stroke-width="2"/>
<path d="M160 75L191 94" stroke="#FF55D6" stroke-width="2"/>
<path d="M217 75L248 94" stroke="#FF55D6" stroke-width="2"/>
<path d="M275 74L306 95" stroke="#FF55D6" stroke-width="2"/>
<path d="M335 74L366 95" stroke="#FF55D6" stroke-width="2"/>
<path d="M394 74L421 101" stroke="#FF55D6" stroke-width="2"/>
<path d="M457 71L478 102" stroke="#FF55D6" stroke-width="2"/>
<path d="M511 69L530 100" stroke="#FF55D6" stroke-width="2"/>
<path d="M-12.5 142.5L18.5 152.5" stroke="#FF55D6" stroke-width="2"/>
<path d="M43.5 142.5L74.5 152.5" stroke="#FF55D6" stroke-width="2"/>
<path d="M102.5 142.5L133.5 152.5" stroke="#FF55D6" stroke-width="2"/>
<path d="M159.5 142.5L190.5 152.5" stroke="#FF55D6" stroke-width="2"/>
<path d="M276 132L307 149" stroke="#FF55D6" stroke-width="2"/>
<path d="M332 138L363 157" stroke="#FF55D6" stroke-width="2"/>
<path d="M392 137L423 158" stroke="#FF55D6" stroke-width="2"/>
<path d="M452 131L479 158" stroke="#FF55D6" stroke-width="2"/>
<path d="M515 127L536 158" stroke="#FF55D6" stroke-width="2"/>
<path d="M-15.5 197.5L21.5 207.5" stroke="#FF55D6" stroke-width="2"/>
<path d="M44.5 197.5L81.5 207.5" stroke="#FF55D6" stroke-width="2"/>
<path d="M154.5 197.5L191.5 207.5" stroke="#FF55D6" stroke-width="2"/>
<path d="M217.5 197.5L254.5 207.5" stroke="#FF55D6" stroke-width="2"/>
<path d="M275.5 197.5L312.5 207.5" stroke="#FF55D6" stroke-width="2"/>
<path d="M337.5 198.5L368.5 208.5" stroke="#FF55D6" stroke-width="2"/>
<path d="M392 192L423 209" stroke="#FF55D6" stroke-width="2"/>
<path d="M450 190L481 211" stroke="#FF55D6" stroke-width="2"/>
<path d="M507 187L534 214" stroke="#FF55D6" stroke-width="2"/>
<path d="M275 259L312 266" stroke="#FF55D6" stroke-width="2"/>
<path d="M330.5 255.5L367.5 265.5" stroke="#FF55D6" stroke-width="2"/>
<path d="M391.5 258.5L422.5 268.5" stroke="#FF55D6" stroke-width="2"/>
<path d="M451 254L482 273" stroke="#FF55D6" stroke-width="2"/>
<path d="M507 253L538 274" stroke="#FF55D6" stroke-width="2"/>
<path d="M390 318L427 325" stroke="#FF55D6" stroke-width="2"/>
<path d="M450.5 319.5L481.5 329.5" stroke="#FF55D6" stroke-width="2"/>
<path d="M510 315L541 334" stroke="#FF55D6" stroke-width="2"/>
<path d="M445.5 375.5L482.5 385.5" stroke="#FF55D6" stroke-width="2"/>
<path d="M506 373L537 392" stroke="#FF55D6" stroke-width="2"/>
<path d="M507 432L538 449" stroke="#FF55D6" stroke-width="2"/>
<path d="M507 491L538 508" stroke="#FF55D6" stroke-width="2"/>
<path d="M515 540L536 567" stroke="#FF55D6" stroke-width="2"/>
<path d="M454 10L473 41" stroke="#FF55D6" stroke-width="2"/>
<path d="M516.5 9.5L533.5 43.5" stroke="#FF55D6" stroke-width="2"/>
<path d="M-12 75L19 94" stroke="#FF55D6" stroke-width="2"/>
<path d="M99.5 197.5L136.5 207.5" stroke="#FF55D6" stroke-width="2"/>
</g>
</svg>
