<svg width="1066" height="1125" viewBox="0 0 1066 1125" fill="none" xmlns="http://www.w3.org/2000/svg">
<path d="M716.703 744.685C623.835 789.804 523.833 809.699 437.244 805.412C350.647 801.124 277.55 772.66 238.322 721.14C199.094 669.621 201.073 604.682 236.135 541.287C271.195 477.899 339.304 416.119 432.173 371C525.042 325.881 625.043 305.986 711.632 310.273C798.23 314.561 871.326 343.025 910.554 394.545C949.782 446.064 947.804 511.003 912.741 574.398C877.682 637.786 809.572 699.566 716.703 744.685Z" stroke="black"/>
<path d="M724.915 753.618C632.095 798.808 532.152 818.759 445.62 814.504C359.078 810.249 286.035 781.795 246.845 730.254C207.654 678.713 209.647 613.727 244.703 550.272C279.755 486.823 347.836 424.97 440.656 379.78C533.476 334.59 633.419 314.639 719.951 318.894C806.493 323.149 879.536 351.604 918.726 403.144C957.917 454.685 955.924 519.671 920.869 583.126C885.816 646.575 817.735 708.428 724.915 753.618Z" stroke="black"/>
</svg>
