<svg width="130" height="123" viewBox="0 0 130 123" fill="none" xmlns="http://www.w3.org/2000/svg">
<path d="M82.457 107.61C86.8906 109.381 91.679 105.207 91.4762 100.455C91.2557 95.3097 85.4702 92.9416 81.2612 94.2944C76.5959 95.7969 74.5956 101.878 77.1336 106.232C79.6715 110.585 85.7313 110.808 88.7887 107.113C89.6113 106.123 87.957 104.978 87.1476 105.96C84.8439 108.74 80.1551 108.103 78.5783 104.759C77.0016 101.415 78.6777 97.0724 82.204 96.1426C84.9602 95.4134 88.7917 96.6593 89.4287 99.9111C90.121 103.473 86.3941 107.003 83.0842 105.691C81.8886 105.216 81.2576 107.141 82.4475 107.612L82.457 107.61Z" fill="#10100E"/>
<path d="M15.0865 56.8273C20.9315 59.1613 27.2443 53.6586 26.9769 47.3943C26.6862 40.6111 19.059 37.4891 13.5101 39.2725C7.35954 41.2533 4.72244 49.2702 8.06835 55.0099C11.4143 60.7495 19.4031 61.0425 23.4338 56.1713C24.5183 54.8664 22.3374 53.3572 21.2703 54.652C18.2332 58.3165 12.0518 57.4776 9.97303 53.069C7.8943 48.6604 10.1041 42.9349 14.7529 41.7091C18.3866 40.7477 23.4378 42.3903 24.2776 46.6773C25.1903 51.3729 20.2769 56.0264 15.9134 54.2971C14.3371 53.6705 13.5052 56.2084 15.074 56.8297L15.0865 56.8273Z" fill="#10100E"/>
<path d="M95.8343 28.8231C104.029 32.0956 112.88 24.3805 112.505 15.5979C112.097 6.08761 101.404 1.71048 93.6241 4.21083C85.0009 6.98806 81.3037 18.2279 85.9947 26.2751C90.6858 34.3222 101.886 34.733 107.538 27.9034C109.058 26.0739 106 23.958 104.504 25.7733C100.246 30.9111 91.5795 29.7349 88.6651 23.5539C85.7507 17.3729 88.8489 9.34563 95.3667 7.62699C100.461 6.27913 107.543 8.58212 108.72 14.5926C110 21.176 103.111 27.7003 96.9937 25.2758C94.7837 24.3973 93.6173 27.9554 95.8168 28.8265L95.8343 28.8231Z" fill="#10100E"/>
<path d="M78.0807 96.7783C78.0807 96.7783 48.5547 66.9815 23.1504 54.4292" stroke="black" stroke-width="2"/>
</svg>
