<svg width="128" height="134" viewBox="0 0 128 134" fill="none" xmlns="http://www.w3.org/2000/svg">
<path d="M19.3669 87.3493C17.9101 91.8956 22.4079 96.3812 27.1338 95.8474C32.2511 95.2686 34.2099 89.332 32.5669 85.2276C30.7425 80.6785 24.5368 79.1072 20.3708 81.9427C16.2047 84.7782 16.4057 90.8386 20.305 93.6309C21.3497 94.3824 22.3763 92.6523 21.3401 91.9134C18.4065 89.8092 18.7143 85.0874 21.9402 83.2812C25.1661 81.475 29.6154 82.8442 30.7889 86.297C31.7086 88.9956 30.733 92.9047 27.5335 93.767C24.0287 94.7061 20.2475 91.2344 21.3252 87.8412C21.7159 86.6152 19.7516 86.12 19.3644 87.34L19.3669 87.3493Z" fill="#10100E"/>
<path d="M65.3273 16.6012C63.4067 22.5948 69.3364 28.5084 75.5667 27.8047C82.3132 27.0415 84.8955 19.2151 82.7294 13.8041C80.3244 7.80672 72.1431 5.73527 66.6508 9.47341C61.1585 13.2116 61.4235 21.2014 66.564 24.8825C67.9414 25.8733 69.2948 23.5924 67.9287 22.6182C64.0612 19.8442 64.4669 13.6193 68.7198 11.2381C72.9727 8.85687 78.8384 10.6619 80.3855 15.2139C81.598 18.7716 80.3117 23.9252 76.0938 25.0619C71.4732 26.3 66.4883 21.7231 67.909 17.2496C68.4241 15.6335 65.8345 14.9806 65.3241 16.5889L65.3273 16.6012Z" fill="#10100E"/>
<path d="M98.897 95.1971C96.2042 103.6 104.518 111.891 113.253 110.905C122.712 109.835 126.332 98.8618 123.295 91.2755C119.923 82.867 108.453 79.9628 100.753 85.2038C93.0522 90.4447 93.4237 101.647 100.631 106.808C102.562 108.197 104.459 104.999 102.544 103.633C97.1219 99.7439 97.6907 91.0163 103.653 87.6778C109.616 84.3394 117.84 86.8701 120.009 93.2521C121.709 98.2401 119.906 105.465 113.992 107.059C107.514 108.795 100.525 102.378 102.517 96.1062C103.239 93.8403 99.608 92.925 98.8924 95.1799L98.897 95.1971Z" fill="#10100E"/>
<path d="M29.8671 82.2277C29.8671 82.2277 57.5317 50.695 68.2812 24.4771" stroke="black" stroke-width="2"/>
</svg>
