<svg width="301" height="269" viewBox="0 0 301 269" fill="none" xmlns="http://www.w3.org/2000/svg">
<mask id="mask0" mask-type="alpha" maskUnits="userSpaceOnUse" x="0" y="0" width="301" height="269">
<rect x="301" width="269" height="301" transform="rotate(90 301 0)" fill="white"/>
</mask>
<g mask="url(#mask0)">
<path d="M267.487 -4L270.513 29" stroke="#FF1C63" stroke-width="2"/>
<path d="M213 -4L219 29" stroke="#FF1C63" stroke-width="2"/>
<path d="M161 -5L170 28" stroke="#FF1C63" stroke-width="2"/>
<path d="M266 46L272 79" stroke="#FF1C63" stroke-width="2"/>
<path d="M105 -2L120 25" stroke="#FF1C63" stroke-width="2"/>
<path d="M55 -1L72 26" stroke="#FF1C63" stroke-width="2"/>
<path d="M-1 -3L18 22" stroke="#FF1C63" stroke-width="2"/>
<path d="M213 47L222 80" stroke="#FF1C63" stroke-width="2"/>
<path d="M266 96L272 129" stroke="#FF1C63" stroke-width="2"/>
<path d="M161 47L170 74" stroke="#FF1C63" stroke-width="2"/>
<path d="M104 48L121 75" stroke="#FF1C63" stroke-width="2"/>
<path d="M52 46L71 73" stroke="#FF1C63" stroke-width="2"/>
<path d="M-1 49L24 74" stroke="#FF1C63" stroke-width="2"/>
<path d="M213 96L222 129" stroke="#FF1C63" stroke-width="2"/>
<path d="M266 145L272 178" stroke="#FF1C63" stroke-width="2"/>
<path d="M158 98L173 125" stroke="#FF1C63" stroke-width="2"/>
<path d="M104 97L121 124" stroke="#FF1C63" stroke-width="2"/>
<path d="M213 144L222 177" stroke="#FF1C63" stroke-width="2"/>
<path d="M45 98L70 123" stroke="#FF1C63" stroke-width="2"/>
<path d="M-6 104L21 123" stroke="#FF1C63" stroke-width="2"/>
<path d="M266 200L272 233" stroke="#FF1C63" stroke-width="2"/>
<path d="M158 148L173 175" stroke="#FF1C63" stroke-width="2"/>
<path d="M267.756 250L270.244 283" stroke="#FF1C63" stroke-width="2"/>
<path d="M213 199L222 232" stroke="#FF1C63" stroke-width="2"/>
<path d="M103 148L122 175" stroke="#FF1C63" stroke-width="2"/>
<path d="M47 150L74 169" stroke="#FF1C63" stroke-width="2"/>
<path d="M-4 153L25 168" stroke="#FF1C63" stroke-width="2"/>
<path d="M158 199L173 226" stroke="#FF1C63" stroke-width="2"/>
<path d="M213 251L222 284" stroke="#FF1C63" stroke-width="2"/>
<path d="M104 202L123 227" stroke="#FF1C63" stroke-width="2"/>
<path d="M-2 208L27 217" stroke="#FF1C63" stroke-width="2"/>
<path d="M49 206L76 223" stroke="#FF1C63" stroke-width="2"/>
<path d="M158 251L173 278" stroke="#FF1C63" stroke-width="2"/>
<path d="M101 251L126 276" stroke="#FF1C63" stroke-width="2"/>
<path d="M44 258L73 275" stroke="#FF1C63" stroke-width="2"/>
<path d="M-7 261L26 270" stroke="#FF1C63" stroke-width="2"/>
</g>
</svg>
