<svg width="17" height="17" viewBox="0 0 17 17" fill="none" xmlns="http://www.w3.org/2000/svg">
<path fill-rule="evenodd" clip-rule="evenodd" d="M10.2566 14.2196C9.95747 14.2185 9.68929 14.0351 9.57988 13.7568C9.47046 13.4784 9.54198 13.1615 9.76031 12.9571C12.5043 10.4028 14.2995 7.84859 14.6936 5.86359C14.9361 4.19767 14.1341 2.55312 12.6721 1.71843C11.4169 1.10542 9.99384 1.62356 8.66564 3.17799L7.20608 4.80541C6.93805 5.10769 6.47573 5.13546 6.17344 4.86744C5.87116 4.59941 5.84338 4.13708 6.11141 3.8348L7.57097 2.21468C10.0814 -0.704438 12.424 -0.0184439 13.3143 0.412127C15.3807 1.5313 16.5113 3.83649 16.1313 6.1555C15.5183 9.23517 12.4824 12.4097 10.7601 14.0298C10.6226 14.1549 10.4425 14.2228 10.2566 14.2196ZM8.69483 15.7302C8.93666 15.4078 8.87131 14.9504 8.54888 14.7085C6.06762 12.8476 2.1487 8.95786 1.52839 5.86359C1.31463 4.42583 1.86822 2.98097 2.98795 2.05413C3.77137 1.39606 4.87317 1.27236 5.78301 1.74033C6.14611 1.90263 6.57231 1.74429 6.74137 1.38428C6.91044 1.02428 6.7601 0.595192 6.40332 0.419424C4.99339 -0.281251 3.30402 -0.092908 2.08302 0.90108C0.523585 2.16552 -0.243977 4.16507 0.0688277 6.1482C0.798608 9.91387 5.35244 14.1758 7.64395 15.8762C7.96639 16.118 8.42381 16.0527 8.66564 15.7302H8.69483Z" fill="#4D4D4D"/>
</svg>
