<svg width="24" height="16" viewBox="0 0 24 16" fill="none" xmlns="http://www.w3.org/2000/svg">
<path fill-rule="evenodd" clip-rule="evenodd" d="M11.9999 0C18.5245 0 23.6331 6.94763 23.8475 7.24346C24.0508 7.52382 24.0508 7.90475 23.8475 8.18535C23.6331 8.48089 18.5245 15.4286 11.9999 15.4286C5.4753 15.4286 0.36647 8.48094 0.152297 8.18512C-0.0507658 7.90447 -0.0507658 7.52382 0.152297 7.24317C0.36647 6.94763 5.4753 0 11.9999 0ZM1.79907 7.71374C3.03127 9.22124 7.19383 13.8325 11.9999 13.8325C16.8163 13.8325 20.9701 9.2236 22.2007 7.71483C20.968 6.20653 16.8057 1.59605 11.9999 1.59605C7.18352 1.59605 3.02968 6.20492 1.79907 7.71374Z" fill="black"/>
<path fill-rule="evenodd" clip-rule="evenodd" d="M6.85547 7.28573C6.85547 4.68632 8.97035 2.57144 11.5698 2.57144C14.1692 2.57144 16.284 4.68632 16.284 7.28573C16.284 9.88514 14.1692 12 11.5698 12C8.97035 12 6.85547 9.88514 6.85547 7.28573ZM8.42693 7.28573C8.42693 9.01871 9.83672 10.4286 11.5698 10.4286C13.3028 10.4286 14.7126 9.01871 14.7126 7.28573C14.7126 5.55274 13.3027 4.1429 11.5698 4.1429C9.83677 4.1429 8.42693 5.55274 8.42693 7.28573Z" fill="black"/>
</svg>
