<svg width="19" height="14" viewBox="0 0 19 14" fill="none" xmlns="http://www.w3.org/2000/svg">
<path fill-rule="evenodd" clip-rule="evenodd" d="M16.625 13.5929H2.375C1.06332 13.5929 0 12.5296 0 11.2179V6.46794C0 5.59349 0.708883 4.8846 1.58333 4.8846H17.4167V3.30127C17.4167 2.86404 17.0622 2.5096 16.625 2.5096H2.375C1.93777 2.5096 1.58333 2.86404 1.58333 3.30127C1.58333 3.73849 1.22889 4.09294 0.791667 4.09294C0.354441 4.09294 0 3.73849 0 3.30127C0 1.98959 1.06332 0.92627 2.375 0.92627H16.625C17.9367 0.92627 19 1.98959 19 3.30127V4.8846C19 5.75905 18.2911 6.46794 17.4167 6.46794H1.58333V11.2179C1.58333 11.6552 1.93777 12.0096 2.375 12.0096H16.625C17.0622 12.0096 17.4167 11.6552 17.4167 11.2179V8.84294C17.4167 8.40571 17.7711 8.05127 18.2083 8.05127C18.6456 8.05127 19 8.40571 19 8.84294V11.2179C19 12.5296 17.9367 13.5929 16.625 13.5929ZM15.8333 8.84294C15.8333 8.40571 15.4789 8.05127 15.0417 8.05127H11.875C11.4378 8.05127 11.0833 8.40571 11.0833 8.84294C11.0833 9.28016 11.4378 9.6346 11.875 9.6346H15.0417C15.4789 9.6346 15.8333 9.28016 15.8333 8.84294Z" fill="#383838"/>
</svg>
