<svg width="35" height="21" viewBox="0 0 35 21" fill="none" xmlns="http://www.w3.org/2000/svg">
<path fill-rule="evenodd" clip-rule="evenodd" d="M6.68385 3.33111C7.17495 1.48868 8.61939 -0.00216126 10.4935 2.26498e-06L10.4912 2C9.78868 1.99919 8.94216 2.59827 8.61196 3.86294L8.60614 3.88522L8.59931 3.9072C8.26918 4.96902 7.3406 5.89386 6.10714 5.81068H0V3.81068H6.14549H6.19L6.23434 3.81463C6.2747 3.81823 6.33862 3.81016 6.42429 3.74155C6.51166 3.67159 6.61566 3.53954 6.68385 3.33111ZM15.1239 3.82009H34.3385V5.82009H15.0872H15.0451L15.0032 5.81655C14.8808 5.80622 14.6053 5.89042 14.459 6.31419C13.9312 8.18653 12.4015 9.63285 10.4912 9.63077L10.4934 7.63077C11.3068 7.63166 12.1984 6.98798 12.5388 5.7544L12.5452 5.73115L12.5528 5.70823C12.9116 4.61644 13.8917 3.74018 15.1239 3.82009ZM25.7059 16.2613C25.3769 14.9924 24.5359 14.3992 23.8473 14.4L23.845 12.4C25.7147 12.3978 27.1484 13.8945 27.6349 15.733C27.703 15.9425 27.8066 16.0744 27.8925 16.1437C27.9765 16.2115 28.037 16.2179 28.0727 16.2147L28.1173 16.2107H28.1621H34.3385V18.2107H28.2007C26.9669 18.2943 26.0449 17.363 25.7184 16.3053L25.7116 16.2834L25.7059 16.2613ZM17.6579 14.3124C18.8927 14.2277 19.7987 15.175 20.1165 16.2225L20.1231 16.244L20.1286 16.2659C20.4545 17.5451 21.2826 18.1239 21.9373 18.1231L21.9396 20.1231C20.0803 20.1253 18.6727 18.6141 18.1972 16.7856C18.1296 16.5734 18.027 16.4416 17.9446 16.374C17.8645 16.3083 17.8124 16.306 17.7881 16.3082L17.7426 16.3124H17.697H0V14.3124H17.6579Z" fill="#040404"/>
</svg>
