<svg width="25" height="24" viewBox="0 0 25 24" fill="none" xmlns="http://www.w3.org/2000/svg">
<path fill-rule="evenodd" clip-rule="evenodd" d="M19.0727 23.7297C18.8076 23.7308 18.5463 23.6674 18.3113 23.5448L12.8727 20.7058C12.556 20.5395 12.1778 20.5395 11.8611 20.7058L10.6211 21.3585C10.0918 21.6209 9.44976 21.4129 9.17497 20.8899C8.90017 20.3669 9.09309 19.7202 9.60949 19.4332L10.8495 18.7806C11.7995 18.2816 12.9342 18.2816 13.8842 18.7806L18.3004 21.1083L17.452 16.1918C17.2717 15.1357 17.6213 14.0583 18.3874 13.3093L21.966 9.8286L17.0278 9.1107C15.9647 8.95692 15.0454 8.28981 14.5695 7.32684L12.3941 2.8563L10.2186 7.32684C9.74274 8.28981 8.82344 8.95692 7.76036 9.1107L2.8221 9.8286L6.40071 13.3093C7.17029 14.0607 7.52021 15.143 7.33615 16.2027L6.30281 22.2069C6.23675 22.5955 5.96839 22.9193 5.59881 23.0564C5.22924 23.1935 4.8146 23.123 4.51109 22.8715C4.20758 22.62 4.06131 22.2257 4.12737 21.8371L5.16071 15.8328C5.2224 15.4778 5.10427 15.1153 4.84527 14.8648L0.494373 10.6118C0.0487408 10.1786 -0.112091 9.52983 0.0795839 8.93864C0.271258 8.34745 0.782148 7.91649 1.39718 7.82719L7.42317 6.94614C7.77693 6.893 8.08195 6.66932 8.23896 6.34789L10.9365 0.909272C11.2114 0.35248 11.7785 0 12.3995 0C13.0205 0 13.5876 0.35248 13.8625 0.909272L16.56 6.34789C16.7171 6.66932 17.0221 6.893 17.3758 6.94614L23.4018 7.82719C24.0169 7.91649 24.5277 8.34745 24.7194 8.93864C24.9111 9.52983 24.7503 10.1786 24.3046 10.6118L19.9537 14.8648C19.6982 15.1129 19.5804 15.4705 19.6383 15.822L20.6716 21.8262C20.7553 22.3016 20.6242 22.7896 20.3135 23.1591C20.0028 23.5285 19.5445 23.7414 19.0618 23.7406L19.0727 23.7297Z" fill="black"/>
</svg>
