<svg width="58" height="58" viewBox="0 0 58 58" fill="none" xmlns="http://www.w3.org/2000/svg">
<path opacity="0.0998797" fill-rule="evenodd" clip-rule="evenodd" d="M46 29C46 19.6112 38.3888 12 29 12C19.6112 12 12 19.6112 12 29C12 38.3888 19.6112 46 29 46C38.3888 46 46 38.3888 46 29ZM21.7143 29C21.7143 24.9762 24.9762 21.7143 29 21.7143C33.0238 21.7143 36.2857 24.9762 36.2857 29C36.2857 33.0238 33.0238 36.2857 29 36.2857C24.9762 36.2857 21.7143 33.0238 21.7143 29Z" fill="black"/>
<path fill-rule="evenodd" clip-rule="evenodd" d="M15.4751 56.4763C17.8984 58.6641 21.6364 58.4732 23.8241 56.0499L26.3093 53.2972C26.392 53.2056 26.4793 53.1183 26.5708 53.0357C28.0568 51.6941 30.3491 51.8112 31.6907 53.2972L34.1759 56.0499C35.3673 57.3696 37.0895 58.083 38.8651 57.9923C42.1256 57.8257 44.6338 55.0476 44.4673 51.7871L44.2781 48.0833C44.2718 47.9601 44.2718 47.8367 44.2781 47.7135C44.3802 45.714 46.0839 44.176 48.0833 44.2781L51.7871 44.4673C53.5627 44.558 55.2849 43.8446 56.4763 42.5249C58.6641 40.1016 58.4732 36.3636 56.0499 34.1759L53.2972 31.6907C53.2056 31.608 53.1183 31.5207 53.0357 31.4292C51.6941 29.9432 51.8112 27.6509 53.2972 26.3093L56.0499 23.8241C57.3696 22.6327 58.083 20.9105 57.9923 19.1349C57.8257 15.8744 55.0476 13.3662 51.7871 13.5327L48.0833 13.7219C47.9601 13.7282 47.8367 13.7282 47.7135 13.7219C45.714 13.6198 44.176 11.9161 44.2781 9.91671L44.4673 6.21295C44.558 4.43729 43.8446 2.71512 42.5249 1.52367C40.1016 -0.664099 36.3636 -0.473177 34.1759 1.95011L31.6907 4.70283C31.608 4.79439 31.5207 4.88167 31.4292 4.96433C29.9432 6.30592 27.6509 6.18885 26.3093 4.70283L23.8241 1.95011C22.6327 0.630397 20.9105 -0.0829501 19.1349 0.00774355C15.8744 0.174278 13.3662 2.95244 13.5327 6.21295L13.7219 9.91671C13.7282 10.0399 13.7282 10.1633 13.7219 10.2865C13.6198 12.286 11.9161 13.824 9.91671 13.7219L6.21295 13.5327C4.43729 13.442 2.71512 14.1554 1.52367 15.4751C-0.664099 17.8984 -0.473177 21.6364 1.95011 23.8241L4.70283 26.3093C4.79439 26.392 4.88167 26.4793 4.96433 26.5708C6.30592 28.0568 6.18885 30.3491 4.70283 31.6907L1.95011 34.1759C0.630397 35.3673 -0.0829501 37.0895 0.00774355 38.8651C0.174278 42.1256 2.95244 44.6338 6.21295 44.4673L9.91671 44.2781C10.0399 44.2718 10.1633 44.2718 10.2865 44.2781C12.286 44.3802 13.824 46.0839 13.7219 48.0833L13.5327 51.7871C13.442 53.5627 14.1554 55.2849 15.4751 56.4763ZM33.4845 51.6777C31.2485 49.201 27.4281 49.0059 24.9514 51.2419C24.7988 51.3797 24.6533 51.5251 24.5155 51.6777L22.0304 54.4304C20.737 55.863 18.5271 55.9759 17.0945 54.6825C16.3143 53.9782 15.8926 52.9601 15.9462 51.9103L16.1354 48.2066C16.3056 44.8742 13.7422 42.0348 10.4098 41.8646C10.2045 41.8541 9.99876 41.8541 9.79344 41.8646L6.08968 42.0538C4.16212 42.1522 2.51972 40.6694 2.42126 38.7419C2.36765 37.6921 2.78937 36.674 3.56956 35.9697L6.32228 33.4845C8.79897 31.2485 8.9941 27.4281 6.75811 24.9514C6.62034 24.7988 6.47487 24.6533 6.32228 24.5155L3.56956 22.0304C2.13695 20.737 2.02408 18.5271 3.31745 17.0945C4.02182 16.3143 5.03994 15.8926 6.08968 15.9462L9.79344 16.1354C13.1258 16.3056 15.9652 13.7422 16.1354 10.4098C16.1459 10.2045 16.1459 9.99876 16.1354 9.79344L15.9462 6.08968C15.8478 4.16212 17.3306 2.51972 19.2581 2.42126C20.3079 2.36765 21.326 2.78937 22.0304 3.56956L24.5155 6.32228C26.7515 8.79897 30.5719 8.9941 33.0486 6.75811C33.2012 6.62034 33.3467 6.47487 33.4845 6.32228L35.9697 3.56956C37.263 2.13695 39.4729 2.02408 40.9055 3.31745C41.6857 4.02182 42.1074 5.03994 42.0538 6.08968L41.8646 9.79344C41.6944 13.1258 44.2578 15.9652 47.5902 16.1354C47.7955 16.1459 48.0012 16.1459 48.2066 16.1354L51.9103 15.9462C53.8379 15.8478 55.4803 17.3306 55.5787 19.2581C55.6324 20.3079 55.2106 21.326 54.4304 22.0304L51.6777 24.5155C49.201 26.7515 49.0059 30.5719 51.2419 33.0486C51.3797 33.2012 51.5251 33.3467 51.6777 33.4845L54.4304 35.9697C55.863 37.263 55.9759 39.4729 54.6825 40.9055C53.9782 41.6857 52.9601 42.1074 51.9103 42.0538L48.2066 41.8646C44.8742 41.6944 42.0348 44.2578 41.8646 47.5902C41.8541 47.7955 41.8541 48.0012 41.8646 48.2066L42.0538 51.9103C42.1522 53.8379 40.6694 55.4803 38.7419 55.5787C37.6921 55.6324 36.674 55.2106 35.9697 54.4304L33.4845 51.6777Z" fill="black"/>
<path fill-rule="evenodd" clip-rule="evenodd" d="M38 29.5C38 34.1944 34.1944 38 29.5 38C24.8056 38 21 34.1944 21 29.5C21 24.8056 24.8056 21 29.5 21C34.1944 21 38 24.8056 38 29.5ZM23.4286 29.5C23.4286 32.8532 26.1468 35.5714 29.5 35.5714C32.8532 35.5714 35.5714 32.8532 35.5714 29.5C35.5714 26.1468 32.8532 23.4286 29.5 23.4286C26.1468 23.4286 23.4286 26.1468 23.4286 29.5Z" fill="black"/>
</svg>
