<svg width="26" height="26" viewBox="0 0 26 26" fill="none" xmlns="http://www.w3.org/2000/svg">
<path fill-rule="evenodd" clip-rule="evenodd" d="M19.3917 4.33333H20.5833C23.5734 4.33692 25.9964 6.75994 26 9.75V20.5833C25.9964 23.5734 23.5734 25.9964 20.5833 26H5.41667C2.42661 25.9964 0.00358163 23.5734 0 20.5833V9.75C0.00358163 6.75994 2.42661 4.33692 5.41667 4.33333H6.60833C7.12664 1.81305 9.34364 0.00324814 11.9167 0H14.0833C16.6564 0.00324814 18.8734 1.81305 19.3917 4.33333ZM14.0833 2.16667H11.9167C10.5443 2.17236 9.32344 3.03945 8.866 4.33333H17.134C16.6766 3.03945 15.4557 2.17236 14.0833 2.16667ZM5.41667 6.5H20.5833C22.3783 6.5 23.8333 7.95507 23.8333 9.75V13H2.16667V9.75C2.16667 7.95507 3.62174 6.5 5.41667 6.5ZM2.16667 20.5833C2.16667 22.3783 3.62174 23.8333 5.41667 23.8333H20.5833C22.3783 23.8333 23.8333 22.3783 23.8333 20.5833V15.1667H14.0833V16.25C14.0833 16.8483 13.5983 17.3333 13 17.3333C12.4017 17.3333 11.9167 16.8483 11.9167 16.25V15.1667H2.16667V20.5833Z" fill="white"/>
</svg>
