<svg width="25" height="19" viewBox="0 0 25 19" fill="none" xmlns="http://www.w3.org/2000/svg">
<path fill-rule="evenodd" clip-rule="evenodd" d="M21.875 18.75H3.125C1.39911 18.75 0 17.3509 0 15.625V5.20833C0 4.63304 0.46637 4.16667 1.04167 4.16667C1.61696 4.16667 2.08333 4.63304 2.08333 5.20833V15.625C2.08333 16.2003 2.5497 16.6667 3.125 16.6667H21.875C22.4503 16.6667 22.9167 16.2003 22.9167 15.625V3.125C22.9167 2.5497 22.4503 2.08333 21.875 2.08333H11.4583C10.883 2.08333 10.4167 1.61696 10.4167 1.04167C10.4167 0.46637 10.883 0 11.4583 0H21.875C23.6009 0 25 1.39911 25 3.125V15.625C25 17.3509 23.6009 18.75 21.875 18.75ZM1.04167 0C0.46637 0 0 0.46637 0 1.04167C0 1.61696 0.46637 2.08333 1.04167 2.08333C1.61696 2.08333 2.08333 1.61696 2.08333 1.04167C2.08333 0.46637 1.61696 0 1.04167 0ZM4.16667 0C3.59137 0 3.125 0.46637 3.125 1.04167C3.125 1.61696 3.59137 2.08333 4.16667 2.08333C4.74196 2.08333 5.20833 1.61696 5.20833 1.04167C5.20833 0.46637 4.74196 0 4.16667 0ZM7.29167 0C6.71637 0 6.25 0.46637 6.25 1.04167C6.25 1.61696 6.71637 2.08333 7.29167 2.08333C7.86696 2.08333 8.33333 1.61696 8.33333 1.04167C8.33333 0.46637 7.86696 0 7.29167 0Z" fill="black"/>
</svg>
