<svg width="45" height="43" viewBox="0 0 45 43" fill="none" xmlns="http://www.w3.org/2000/svg">
<path fill-rule="evenodd" clip-rule="evenodd" d="M25.0369 2.61052L29.3841 11.2953C29.8102 12.1478 30.6325 12.739 31.5862 12.8758L41.3111 14.2757C43.7138 14.6226 44.6699 17.5346 42.9311 19.2031L35.8987 25.9604C35.2076 26.6248 34.8931 27.58 35.0565 28.5181L36.7162 38.0579C37.1249 40.4178 34.6131 42.2183 32.4656 41.1018L23.7736 36.5946C22.9215 36.1524 21.901 36.1524 21.0464 36.5946L12.3544 41.1018C10.2069 42.2183 7.69513 40.4178 8.10632 38.0579L9.76346 28.5181C9.92694 27.58 9.61236 26.6248 8.92127 25.9604L1.88894 19.2031C0.150059 17.5346 1.1062 14.6226 3.50893 14.2757L13.2338 12.8758C14.1875 12.739 15.0123 12.1478 15.4384 11.2953L19.7831 2.61052C20.8581 0.463159 23.9619 0.463159 25.0369 2.61052Z" stroke="#FF2868" stroke-width="1.5" stroke-linecap="round" stroke-linejoin="round"/>
</svg>
