<svg width="64" height="64" viewBox="0 0 64 64" fill="none" xmlns="http://www.w3.org/2000/svg">
<path fill-rule="evenodd" clip-rule="evenodd" d="M58.3687 22.6668C56.4388 9.83669 45.3681 0 32 0C18.6319 0 7.56121 9.83669 5.63132 22.6668L5.33333 22.6667C2.38781 22.6667 0 25.0545 0 28V33.3333C0 36.2789 2.38781 38.6667 5.33333 38.6667L5.62758 38.6677C7.38823 50.6369 16.7936 60.6014 26.8809 61.2949C27.419 62.8685 28.9107 64 30.6667 64H33.3333C35.5425 64 37.3333 62.2091 37.3333 60C37.3333 57.7909 35.5425 56 33.3333 56H30.6667C28.942 56 27.4723 57.0915 26.9094 58.6229C17.2334 57.8492 8 46.9305 8 34.6667V26.6667L8.00397 26.2258C8.23909 13.1744 18.8924 2.66667 32 2.66667C45.2548 2.66667 56 13.4118 56 26.6667V37.3333C56 38.0697 56.597 38.6667 57.3333 38.6667H58.6667C61.6122 38.6667 64 36.2789 64 33.3333V28C64 25.0545 61.6122 22.6667 58.6667 22.6667L58.3687 22.6668ZM29.3333 60C29.3333 59.2636 29.9303 58.6667 30.6667 58.6667H33.3333C34.0697 58.6667 34.6667 59.2636 34.6667 60C34.6667 60.7364 34.0697 61.3333 33.3333 61.3333H30.6667C29.9303 61.3333 29.3333 60.7364 29.3333 60ZM5.33333 25.3333C3.86057 25.3333 2.66667 26.5272 2.66667 28V33.3333C2.66667 34.8061 3.86057 36 5.33333 36V25.3333ZM58.6667 36V25.3333C60.1394 25.3333 61.3333 26.5272 61.3333 28V33.3333C61.3333 34.8061 60.1394 36 58.6667 36Z" fill="black"/>
<path opacity="0.0956043" d="M32 7C43.0457 7 52 15.9543 52 27V35C52 46.0457 43.0457 55 32 55C20.9543 55 12 46.0457 12 35V27C12 15.9543 20.9543 7 32 7Z" fill="black"/>
<path d="M40.5292 36.7062C39.0616 39.5017 35.9688 41.3334 32.5 41.3334C29.0312 41.3334 25.9384 39.5017 24.4708 36.7062C24.1297 36.0564 23.3347 35.8106 22.6951 36.1571C22.0555 36.5036 21.8136 37.3112 22.1547 37.961C24.0846 41.6372 28.0742 44 32.5 44C36.9258 44 40.9154 41.6372 42.8453 37.961C43.1864 37.3112 42.9445 36.5036 42.3049 36.1571C41.6653 35.8106 40.8703 36.0564 40.5292 36.7062Z" fill="black"/>
</svg>
