<svg width="18" height="19" viewBox="0 0 18 19" fill="none" xmlns="http://www.w3.org/2000/svg">
<path fill-rule="evenodd" clip-rule="evenodd" d="M8.9408 18.5932H8.16673C7.12815 18.5902 6.21782 17.898 5.93741 16.8979C5.82198 16.4854 6.06284 16.0574 6.47539 15.942C6.88793 15.8265 7.31594 16.0674 7.43137 16.48C7.52774 16.8246 7.84781 17.0582 8.20543 17.045H8.9795C9.33713 17.0582 9.6572 16.8246 9.75358 16.48L10.1096 15.1873C10.2331 14.7431 10.5481 14.377 10.9689 14.1887C11.0927 14.1345 11.2166 14.0649 11.3404 13.9952C11.4643 13.9255 11.5804 13.8481 11.6965 13.7707C12.0671 13.5023 12.5376 13.4116 12.9814 13.523L14.2896 13.8559C14.6252 13.9402 14.9759 13.7917 15.1488 13.492L15.5204 12.8496C15.6945 12.549 15.647 12.1692 15.4043 11.9207L14.4599 10.9686C14.1433 10.644 13.9849 10.197 14.0264 9.74554C14.0495 9.45443 14.0495 9.16195 14.0264 8.87084C13.9872 8.42197 14.1455 7.97826 14.4599 7.65555L15.4043 6.69571C15.647 6.44721 15.6945 6.06743 15.5204 5.76682L15.1488 5.12434C14.975 4.82136 14.6199 4.67231 14.2819 4.76053L12.9737 5.09338C12.5358 5.20222 12.0722 5.11459 11.7042 4.85342C11.4585 4.68801 11.1996 4.54303 10.9302 4.41994C10.5217 4.22955 10.2165 3.87062 10.0942 3.43687L9.73035 2.12869C9.63397 1.78405 9.31391 1.5504 8.95628 1.56362H8.18221C7.82459 1.5504 7.50452 1.78405 7.40814 2.12869L7.05207 3.41365C6.92863 3.85783 6.61365 4.22388 6.19285 4.4122C6.069 4.47412 5.93741 4.53605 5.8213 4.60572C5.70519 4.67538 5.58134 4.75279 5.46523 4.8302C5.09457 5.09863 4.62415 5.18931 4.18027 5.0779L2.87209 4.74505C2.53657 4.66068 2.18579 4.8092 2.01287 5.10886L1.64132 5.75134C1.46721 6.05194 1.51468 6.43173 1.75743 6.68022L2.7018 7.63233C3.01841 7.95686 3.17684 8.40388 3.13528 8.85536C3.1115 9.14644 3.1115 9.43898 3.13528 9.73006C3.17452 10.1789 3.01626 10.6226 2.7018 10.9454L1.75743 11.9052C1.51468 12.1537 1.46721 12.5335 1.64132 12.8341L2.01287 13.4766C2.18668 13.7795 2.54186 13.9286 2.87983 13.8404C3.14808 13.7712 3.43284 13.8505 3.62685 14.0482C3.82085 14.2459 3.89461 14.5322 3.82036 14.7991C3.74611 15.0659 3.53512 15.2729 3.26687 15.3421C2.25784 15.599 1.20112 15.1529 0.681474 14.2506L0.30992 13.6082C-0.210418 12.7047 -0.0648107 11.5651 0.665992 10.8215L1.61036 9.86165C1.57655 9.4857 1.57655 9.10747 1.61036 8.73151L0.696955 7.75618C-0.0376485 7.01127 -0.183441 5.86712 0.340883 4.96179L0.712437 4.31931C1.23441 3.41998 2.2906 2.97726 3.29783 3.23561L4.60601 3.56846C4.76301 3.45438 4.92578 3.34845 5.09367 3.25109C5.25365 3.15821 5.41878 3.07306 5.58908 2.99565L5.96063 1.70295C6.23893 0.697109 7.15406 0.000475392 8.19769 0H8.97176C10.0103 0.00297188 10.9207 0.695199 11.2011 1.69521L11.5649 3.00339C11.911 3.15942 12.2426 3.34593 12.5557 3.56072L13.8639 3.23561C14.8729 2.97866 15.9296 3.42476 16.4493 4.32705L16.8208 4.96953C17.3412 5.87302 17.1956 7.01256 16.4648 7.75618L15.5049 8.73925C15.5381 9.11524 15.5381 9.49341 15.5049 9.86939L16.4415 10.837C17.1761 11.5819 17.3219 12.726 16.7976 13.6314L16.4261 14.2739C15.9041 15.1732 14.8479 15.6159 13.8407 15.3576L12.5325 15.0247C12.3755 15.1388 12.2127 15.2447 12.0448 15.3421C11.8823 15.435 11.7197 15.5201 11.5494 15.5975L11.1779 16.8902C10.8996 17.8961 9.98444 18.5927 8.9408 18.5932ZM12.4086 9.30432C12.4086 7.16679 10.6758 5.43397 8.53829 5.43397C6.40075 5.43397 4.66793 7.16679 4.66793 9.30432C4.66793 11.4419 6.40075 13.1747 8.53829 13.1747C10.6758 13.1747 12.4086 11.4419 12.4086 9.30432ZM10.8605 9.30432C10.8605 10.5868 9.82081 11.6265 8.53829 11.6265C7.25576 11.6265 6.21607 10.5868 6.21607 9.30432C6.21607 8.0218 7.25576 6.98211 8.53829 6.98211C9.82081 6.98211 10.8605 8.0218 10.8605 9.30432Z" fill="#1D1D1D"/>
</svg>
