<svg width="28" height="27" viewBox="0 0 28 27" fill="none" xmlns="http://www.w3.org/2000/svg">
<path fill-rule="evenodd" clip-rule="evenodd" d="M21.5345 26.9876C21.2353 26.9889 20.9402 26.9167 20.6749 26.7773L14.5342 23.5486C14.1767 23.3594 13.7496 23.3594 13.3921 23.5486L11.992 24.2908C11.3944 24.5893 10.6695 24.3527 10.3592 23.7579C10.049 23.1631 10.2668 22.4276 10.8499 22.1012L12.2499 21.359C13.3226 20.7915 14.6037 20.7915 15.6764 21.359L20.6626 24.0063L19.7046 18.4148C19.5011 17.2137 19.8958 15.9884 20.7608 15.1366L24.8013 11.178L19.2257 10.3615C18.0254 10.1866 16.9874 9.42795 16.4501 8.33276L13.9939 3.24845L11.5376 8.33276C11.0003 9.42795 9.96235 10.1866 8.76205 10.3615L3.18637 11.178L7.2269 15.1366C8.09582 15.9911 8.49091 17.222 8.28308 18.4272L7.11637 25.2557C7.04178 25.6977 6.73877 26.066 6.3215 26.2219C5.90422 26.3778 5.43606 26.2977 5.09337 26.0116C4.75068 25.7256 4.58553 25.2771 4.66012 24.8351L5.82684 18.0066C5.8965 17.6028 5.76312 17.1905 5.47068 16.9056L0.558186 12.0687C0.0550322 11.576 -0.126559 10.8382 0.0898564 10.1659C0.306272 9.4935 0.883106 9.00337 1.57753 8.90181L8.38133 7.89979C8.78076 7.83936 9.12515 7.58497 9.30243 7.21941L12.3482 1.03411C12.6586 0.400873 13.2989 0 14 0C14.7011 0 15.3414 0.400873 15.6518 1.03411L18.6976 7.21941C18.8748 7.58497 19.2192 7.83936 19.6187 7.89979L26.4225 8.90181C27.1169 9.00337 27.6937 9.4935 27.9101 10.1659C28.1266 10.8382 27.945 11.576 27.4418 12.0687L22.5293 16.9056C22.2408 17.1878 22.1078 17.5945 22.1732 17.9942L23.3399 24.8228C23.4344 25.3634 23.2863 25.9185 22.9355 26.3387C22.5847 26.7588 22.0673 27.001 21.5223 27L21.5345 26.9876Z" fill="black"/>
</svg>
