<svg width="54" height="71" viewBox="0 0 54 71" fill="none" xmlns="http://www.w3.org/2000/svg">
<path d="M35.8442 0H5.26546C2.35734 0 0 2.35855 0 5.26772V65.7323C0 68.6416 2.35734 71 5.26546 71H48.7345C51.6427 71 54 68.6414 54 65.7323V18.1638L35.8442 0Z" fill="#687AFF"/>
<path d="M35.8283 0H27V71H48.73C51.6406 71 54 68.6417 54 65.7323V18.1638L35.8283 0Z" fill="#606AEA"/>
<path d="M36 12.7798C36 15.6629 38.3371 18 41.2202 18H54L36 0V12.7798Z" fill="#7584F2"/>
<path d="M11.8428 22.8532H42.1584V28.5906H11.8428V22.8532Z" fill="white"/>
<path d="M11.8428 41.7943H42.1584V47.5316H11.8428V41.7943Z" fill="white"/>
<path d="M11.8428 51.265H25.3285V57.0023H11.8428V51.265Z" fill="white"/>
<path d="M11.8428 32.3237H42.1584V38.0611H11.8428V32.3237Z" fill="white"/>
<path d="M27.0234 22.8532H42.1578V28.5906H27.0234V22.8532Z" fill="#E9EDF5"/>
<path d="M27.0234 41.7943H42.1578V47.5316H27.0234V41.7943Z" fill="#E9EDF5"/>
<path d="M27.0234 32.3237H42.1578V38.0611H27.0234V32.3237Z" fill="#E9EDF5"/>
</svg>
