<svg width="25" height="23" viewBox="0 0 25 23" fill="none" xmlns="http://www.w3.org/2000/svg">
<path fill-rule="evenodd" clip-rule="evenodd" d="M2.00207 19.4476C0.763874 19.0109 -0.0464486 17.8197 0.00206514 16.5076V13.3676C0.0122516 12.3058 0.598137 11.3331 1.53207 10.8276V10.5576C1.50419 5.39181 5.23802 0.973145 10.3361 0.138822C15.4342 -0.695501 20.3818 2.30241 22.0021 7.20764C22.1253 7.54347 22.0601 7.91955 21.8308 8.19421C21.6016 8.46886 21.2433 8.60038 20.8908 8.53921C20.5384 8.47803 20.2453 8.23347 20.1221 7.89764C19.455 5.84061 18.023 4.11858 16.1221 3.08764C13.4719 1.67998 10.2784 1.76104 7.70306 3.30136C5.12769 4.84167 3.54558 7.61682 3.53207 10.6176V11.6176C3.53207 12.1699 3.08435 12.6176 2.53207 12.6176C2.36207 12.6176 2.03207 13.0076 2.03207 13.3776V16.6176C2.03207 17.1699 2.47978 17.6176 3.03207 17.6176C3.58435 17.6176 4.03206 17.1699 4.03206 16.6176V14.3776C4.03206 13.8254 4.47978 13.3776 5.03206 13.3776C5.58435 13.3776 6.03206 13.8254 6.03206 14.3776V16.6176C6.03611 17.5994 5.55957 18.5209 4.75616 19.0851C3.95274 19.6493 2.92411 19.7847 2.00207 19.4476ZM21.8821 19.6676C23.1391 19.2819 23.9985 18.1226 24.0021 16.8076V13.9076C24.0506 12.5956 23.2403 11.4044 22.0021 10.9676C21.0803 10.6417 20.0574 10.7854 19.2612 11.3528C18.4649 11.9201 17.995 12.8399 18.0021 13.8176V15.8176C18.0021 16.3699 18.4498 16.8176 19.0021 16.8176C19.5543 16.8176 20.0021 16.3699 20.0021 15.8176V13.8176C20.0021 13.2654 20.4498 12.8176 21.0021 12.8176C21.5543 12.8176 22.0021 13.2654 22.0021 13.8176V16.8176C22.0021 17.3699 21.5543 17.8176 21.0021 17.8176C20.7261 17.8171 20.4622 17.9307 20.2729 18.1314C20.0835 18.3321 19.9855 18.6022 20.0021 18.8776C19.9696 19.9587 19.0836 20.8181 18.0021 20.8176H14.0021V20.1076C14.0021 19.5554 13.5543 19.1076 13.0021 19.1076C12.4498 19.1076 12.0021 19.5554 12.0021 20.1076V21.8076C12.0021 22.3599 12.4498 22.8076 13.0021 22.8076H18.0021C19.8811 22.8093 21.5081 21.5028 21.9121 19.6676H21.8821Z" fill="#FF567F"/>
</svg>
