<svg width="71" height="69" viewBox="0 0 71 69" fill="none" xmlns="http://www.w3.org/2000/svg">
<path fill-rule="evenodd" clip-rule="evenodd" d="M63.8739 24.4376C61.7742 10.6052 49.7294 0 35.1849 0C20.6405 0 8.59568 10.6052 6.49598 24.4376L6.17177 24.4375C2.96707 24.4375 0.369141 27.0119 0.369141 30.1875V35.9375C0.369141 39.1131 2.96707 41.6875 6.17177 41.6875L6.49191 41.6886C8.40749 54.5929 18.6404 65.3359 29.6154 66.0835C30.2008 67.7801 31.8238 69 33.7343 69H36.6356C39.0391 69 40.9876 67.0692 40.9876 64.6875C40.9876 62.3058 39.0391 60.375 36.6356 60.375H33.7343C31.8579 60.375 30.2589 61.5517 29.6464 63.2028C19.119 62.3686 9.07309 50.597 9.07309 37.375V28.75L9.07741 28.2747C9.33322 14.2036 20.924 2.875 35.1849 2.875C49.6061 2.875 61.2968 14.4596 61.2968 28.75V40.25C61.2968 41.0439 61.9463 41.6875 62.7474 41.6875H64.1981C67.4028 41.6875 70.0007 39.1131 70.0007 35.9375V30.1875C70.0007 27.0119 67.4028 24.4375 64.1981 24.4375L63.8739 24.4376ZM32.2836 64.6875C32.2836 63.8936 32.9331 63.25 33.7343 63.25H36.6356C37.4368 63.25 38.0862 63.8936 38.0862 64.6875C38.0862 65.4814 37.4368 66.125 36.6356 66.125H33.7343C32.9331 66.125 32.2836 65.4814 32.2836 64.6875ZM6.17177 27.3125C4.56942 27.3125 3.27046 28.5997 3.27046 30.1875V35.9375C3.27046 37.5253 4.56942 38.8125 6.17177 38.8125V27.3125ZM64.1981 38.8125V27.3125C65.8004 27.3125 67.0994 28.5997 67.0994 30.1875V35.9375C67.0994 37.5253 65.8004 38.8125 64.1981 38.8125Z" fill="black"/>
<path opacity="0.15658" d="M35.1851 8C47.1679 8 56.8819 17.5139 56.8819 29.25V37.75C56.8819 49.486 47.1679 59 35.1851 59C23.2023 59 13.4883 49.486 13.4883 37.75V29.25C13.4883 17.5139 23.2023 8 35.1851 8Z" fill="black"/>
<path d="M44.0597 39.7944C42.4376 42.9395 39.0193 45.0001 35.1853 45.0001C31.3514 45.0001 27.9331 42.9395 26.311 39.7944C25.934 39.0635 25.0553 38.7869 24.3484 39.1767C23.6415 39.5666 23.374 40.4751 23.751 41.2061C25.8841 45.3418 30.2936 48 35.1853 48C40.0771 48 44.4866 45.3418 46.6197 41.2061C46.9967 40.4751 46.7292 39.5666 46.0223 39.1767C45.3154 38.7869 44.4367 39.0635 44.0597 39.7944Z" fill="black"/>
</svg>
