<svg width="27" height="27" viewBox="0 0 27 27" fill="none" xmlns="http://www.w3.org/2000/svg">
<path d="M6.75 2.25L3.375 6.75V22.5C3.375 23.0967 3.61205 23.669 4.03401 24.091C4.45597 24.5129 5.02826 24.75 5.625 24.75H21.375C21.9717 24.75 22.544 24.5129 22.966 24.091C23.3879 23.669 23.625 23.0967 23.625 22.5V6.75L20.25 2.25H6.75Z" stroke="white" stroke-width="2" stroke-linecap="round" stroke-linejoin="round"/>
<path d="M3.375 6.75H23.625" stroke="white" stroke-width="2" stroke-linecap="round" stroke-linejoin="round"/>
<path d="M18 11.25C18 12.4435 17.5259 13.5881 16.682 14.432C15.8381 15.2759 14.6935 15.75 13.5 15.75C12.3065 15.75 11.1619 15.2759 10.318 14.432C9.47411 13.5881 9 12.4435 9 11.25" stroke="white" stroke-width="2" stroke-linecap="round" stroke-linejoin="round"/>
</svg>
