<svg width="14" height="19" viewBox="0 0 14 19" fill="none" xmlns="http://www.w3.org/2000/svg">
<path fill-rule="evenodd" clip-rule="evenodd" d="M11.6667 18.6667H3.88889C3.45933 18.6667 3.11111 18.3184 3.11111 17.8889C3.11111 17.4593 3.45933 17.1111 3.88889 17.1111H11.6667C12.0962 17.1111 12.4444 16.7629 12.4444 16.3333V13.1056C12.4053 12.6691 12.1435 12.2838 11.7522 12.0867C8.70363 10.8558 5.29637 10.8558 2.24778 12.0867C1.85646 12.2838 1.59471 12.6691 1.55556 13.1056V17.8889C1.55556 18.3184 1.20733 18.6667 0.777778 18.6667C0.348223 18.6667 0 18.3184 0 17.8889V13.1056C0.0343951 12.032 0.681578 11.0733 1.66444 10.64C5.08704 9.25696 8.91296 9.25696 12.3356 10.64C13.3184 11.0733 13.9656 12.032 14 13.1056V16.3333C14 17.622 12.9553 18.6667 11.6667 18.6667ZM10.8889 3.88889C10.8889 1.74111 9.14777 0 7 0C4.85223 0 3.11111 1.74111 3.11111 3.88889C3.11111 6.03666 4.85223 7.77778 7 7.77778C9.14777 7.77778 10.8889 6.03666 10.8889 3.88889ZM9.33333 3.88889C9.33333 5.17755 8.28866 6.22222 7 6.22222C5.71134 6.22222 4.66667 5.17755 4.66667 3.88889C4.66667 2.60022 5.71134 1.55556 7 1.55556C8.28866 1.55556 9.33333 2.60022 9.33333 3.88889Z" fill="#010101"/>
</svg>
