<svg width="30" height="23" viewBox="0 0 30 23" fill="none" xmlns="http://www.w3.org/2000/svg">
<path fill-rule="evenodd" clip-rule="evenodd" d="M26.25 23H3.75C1.67893 23 0 21.2838 0 19.1667V6.38889C0 5.68319 0.559644 5.11111 1.25 5.11111C1.94036 5.11111 2.5 5.68319 2.5 6.38889V19.1667C2.5 19.8724 3.05964 20.4444 3.75 20.4444H26.25C26.9404 20.4444 27.5 19.8724 27.5 19.1667V3.83333C27.5 3.12764 26.9404 2.55556 26.25 2.55556H13.75C13.0596 2.55556 12.5 1.98347 12.5 1.27778C12.5 0.572081 13.0596 0 13.75 0H26.25C28.3211 0 30 1.71624 30 3.83333V19.1667C30 21.2838 28.3211 23 26.25 23ZM1.25 0C0.559644 0 0 0.572081 0 1.27778C0 1.98347 0.559644 2.55556 1.25 2.55556C1.94036 2.55556 2.5 1.98347 2.5 1.27778C2.5 0.572081 1.94036 0 1.25 0ZM5 0C4.30964 0 3.75 0.572081 3.75 1.27778C3.75 1.98347 4.30964 2.55556 5 2.55556C5.69036 2.55556 6.25 1.98347 6.25 1.27778C6.25 0.572081 5.69036 0 5 0ZM8.75 0C8.05964 0 7.5 0.572081 7.5 1.27778C7.5 1.98347 8.05964 2.55556 8.75 2.55556C9.44036 2.55556 10 1.98347 10 1.27778C10 0.572081 9.44036 0 8.75 0Z" fill="white"/>
</svg>
