<svg width="77" height="63" viewBox="0 0 77 63" fill="none" xmlns="http://www.w3.org/2000/svg">
<path d="M76.541 33.8502C76.541 26.639 70.6423 20.7004 63.2902 20.7004C62.9482 20.7004 62.6063 20.7004 62.2643 20.7004C62.4353 19.7671 62.5208 18.7491 62.5208 17.731C62.5208 7.97473 54.4848 0 44.6535 0C35.9336 0 28.7525 6.1083 27.1282 14.2527C24.478 12.7256 21.4004 11.8773 18.2373 11.8773C8.49152 11.8773 0.541016 19.7671 0.541016 29.4386C0.541016 38.0072 6.69625 45.3032 15.2452 46.7455H15.5016C16.3565 46.7455 17.0405 46.1516 17.2114 45.3032C17.3824 44.37 16.784 43.5217 15.8436 43.352C9.00446 42.1643 4.04608 36.3105 4.04608 29.4386C4.04608 21.6336 10.4578 15.2708 18.3228 15.2708C21.6569 15.2708 24.9055 16.4585 27.4701 18.5794C28.325 19.343 30.0348 19.0884 30.2913 17.3069C30.5478 9.50181 36.874 3.3935 44.739 3.3935C52.6895 3.3935 59.1867 9.84116 59.1867 17.731C59.1867 19.343 58.9302 20.87 58.4173 22.3123C58.0753 23.4152 58.9302 24.8574 60.5545 24.5181C61.4949 24.2635 62.4353 24.0939 63.3757 24.0939C68.7615 24.0939 73.2069 28.5054 73.2069 33.8502C73.2069 39.1949 68.847 43.6065 63.3757 43.6065H60.1271C59.1867 43.6065 58.4173 44.37 58.4173 45.3032C58.4173 46.2365 59.1867 47 60.1271 47H63.3757C70.6423 47 76.541 41.1462 76.541 33.8502Z" fill="#E5E3DF"/>
<path fill-rule="evenodd" clip-rule="evenodd" d="M21.5566 45.9914C21.5566 36.5726 29.4345 29.0039 39.0438 29.0039C48.6531 29.0039 56.5309 36.6567 56.5309 45.9914C56.5309 55.3261 48.7396 62.9789 39.0438 62.9789C29.3479 62.9789 21.5566 55.4102 21.5566 45.9914ZM25.0194 45.9914C25.0194 53.476 31.3391 59.6151 39.0438 59.6151C46.7485 59.6151 53.0681 53.476 53.0681 45.9914C53.0681 38.5068 46.7485 32.3678 39.0438 32.3678C31.3391 32.3678 25.0194 38.5068 25.0194 45.9914Z" fill="black"/>
<path d="M45.9704 39.2638L35.8417 49.1031L32.1192 45.4869C31.4266 44.8142 30.3878 44.8142 29.6952 45.4869C29.0026 46.1597 29.0026 47.1689 29.6952 47.8417L35.9282 53.8966L48.4809 41.7026C49.1735 41.0298 49.1735 40.0207 48.4809 39.3479C47.7883 38.6751 46.6629 38.6751 45.9704 39.2638Z" fill="black"/>
</svg>
