<svg width="54" height="54" viewBox="0 0 54 54" fill="none" xmlns="http://www.w3.org/2000/svg">
<path fill-rule="evenodd" clip-rule="evenodd" d="M49.2486 19.1251C47.6202 8.2997 38.2794 0 27 0C15.7206 0 6.37977 8.2997 4.75142 19.1251L4.5 19.125C2.01472 19.125 0 21.1397 0 23.625V28.125C0 30.6103 2.01472 32.625 4.5 32.625L4.74827 32.6259C6.23382 42.7249 14.1696 51.1324 22.6808 51.7175C23.1348 53.0453 24.3934 54 25.875 54H28.125C29.989 54 31.5 52.489 31.5 50.625C31.5 48.761 29.989 47.25 28.125 47.25H25.875C24.4198 47.25 23.1798 48.1709 22.7048 49.4631C14.5407 48.8102 6.75 39.5976 6.75 29.25V22.5L6.75335 22.128C6.95173 11.1159 15.9405 2.25 27 2.25C38.1838 2.25 47.25 11.3162 47.25 22.5V31.5C47.25 32.1213 47.7537 32.625 48.375 32.625H49.5C51.9853 32.625 54 30.6103 54 28.125V23.625C54 21.1397 51.9853 19.125 49.5 19.125L49.2486 19.1251ZM24.75 50.625C24.75 50.0037 25.2537 49.5 25.875 49.5H28.125C28.7463 49.5 29.25 50.0037 29.25 50.625C29.25 51.2463 28.7463 51.75 28.125 51.75H25.875C25.2537 51.75 24.75 51.2463 24.75 50.625ZM4.5 21.375C3.25736 21.375 2.25 22.3824 2.25 23.625V28.125C2.25 29.3676 3.25736 30.375 4.5 30.375V21.375ZM49.5 30.375V21.375C50.7426 21.375 51.75 22.3824 51.75 23.625V28.125C51.75 29.3676 50.7426 30.375 49.5 30.375Z" fill="#161616"/>
<path d="M34.6011 30.5738C33.3881 33.2695 30.8318 35.0358 27.9647 35.0358C25.0976 35.0358 22.5414 33.2695 21.3283 30.5738C21.0464 29.9472 20.3893 29.7102 19.8607 30.0443C19.332 30.3784 19.132 31.1572 19.414 31.7837C21.0091 35.3287 24.3066 37.6071 27.9647 37.6071C31.6228 37.6071 34.9203 35.3287 36.5155 31.7837C36.7974 31.1572 36.5974 30.3784 36.0687 30.0443C35.5401 29.7102 34.883 29.9472 34.6011 30.5738Z" fill="#FF3A10"/>
</svg>
