<svg width="64" height="64" viewBox="0 0 64 64" fill="none" xmlns="http://www.w3.org/2000/svg">
<path fill-rule="evenodd" clip-rule="evenodd" d="M56.381 15H7.61905C3.41116 15 0 18.4278 0 22.6562V56.3438C0 60.5722 3.41116 64 7.61905 64H56.381C60.5888 64 64 60.5722 64 56.3438V22.6562C64 18.4278 60.5888 15 56.381 15ZM3.04762 22.6562C3.04762 20.1192 5.09432 18.0625 7.61905 18.0625H56.381C58.9057 18.0625 60.9524 20.1192 60.9524 22.6562V56.3438C60.9524 58.8808 58.9057 60.9375 56.381 60.9375H7.61905C5.09432 60.9375 3.04762 58.8808 3.04762 56.3438V22.6562Z" fill="black"/>
<path opacity="0.155805" d="M11.0625 23H53.9375C55.6289 23 57 24.3838 57 26.0909V53.9091C57 55.6162 55.6289 57 53.9375 57H11.0625C9.37113 57 8 55.6162 8 53.9091V26.0909C8 24.3838 9.37113 23 11.0625 23Z" fill="black"/>
<path fill-rule="evenodd" clip-rule="evenodd" d="M53.8889 0H11.1111L10.9329 0.0103018C10.1731 0.0987547 9.58333 0.74597 9.58333 1.53125C9.58333 2.37694 10.2673 3.0625 11.1111 3.0625H53.8889L54.0671 3.0522C54.8269 2.96375 55.4167 2.31653 55.4167 1.53125C55.4167 0.685564 54.7327 0 53.8889 0ZM6.52778 7.65625H58.4722C59.316 7.65625 60 8.34181 60 9.1875C60 9.97278 59.4102 10.62 58.6504 10.7084L58.4722 10.7187H6.52778C5.68401 10.7187 5 10.0332 5 9.1875C5 8.40222 5.58978 7.755 6.34961 7.66655L6.52778 7.65625ZM45.2223 31.0232C45.8466 30.4543 46.8129 30.5005 47.3805 31.1262C47.948 31.752 47.902 32.7204 47.2777 33.2893L30.4721 48.6018C29.8687 49.1516 28.9408 49.1295 28.3641 48.5515L20.7253 40.8953C20.1286 40.2973 20.1286 39.3277 20.7253 38.7297C21.3219 38.1318 22.2892 38.1318 22.8859 38.7297L29.4947 45.3536L45.2223 31.0232Z" fill="black"/>
</svg>
