<svg width="23" height="24" viewBox="0 0 23 24" fill="none" xmlns="http://www.w3.org/2000/svg">
<path fill-rule="evenodd" clip-rule="evenodd" d="M10.0574 23.1487H9.98736C9.58727 23.1207 9.24264 22.8563 9.11189 22.4772C8.98115 22.098 9.08959 21.6774 9.38736 21.4087L20.0174 10.7787C20.2228 10.5732 20.3286 10.2885 20.3074 9.99874L19.7374 2.57874L12.3174 2.00874C12.0276 1.98749 11.7429 2.09334 11.5374 2.29874L2.28736 11.5487C1.89964 11.9388 1.89964 12.5687 2.28736 12.9587L7.87736 18.5487C8.21714 18.9455 8.19429 19.5369 7.82492 19.9063C7.45555 20.2757 6.86412 20.2985 6.46736 19.9587L0.87736 14.3687C-0.292453 13.1975 -0.292453 11.3 0.87736 10.1287L10.1274 0.878735C10.7463 0.259801 11.6046 -0.0579715 12.4774 0.00873538L20.7574 0.648735C21.2489 0.686709 21.6394 1.07722 21.6774 1.56874L22.3174 9.84874C22.3841 10.7215 22.0663 11.5798 21.4474 12.1987L10.7874 22.8587C10.5938 23.0509 10.3301 23.1557 10.0574 23.1487ZM17.1274 9.41874C18.1388 8.40603 18.294 6.81984 17.498 5.63031C16.702 4.44078 15.1765 3.97923 13.8546 4.52796C12.5327 5.07669 11.7825 6.48284 12.0628 7.88641C12.3432 9.28997 13.5761 10.3 15.0074 10.2987C15.8131 10.3061 16.588 9.98891 17.1574 9.41874H17.1274ZM15.7174 6.58874C16.056 6.92459 16.1103 7.45281 15.8471 7.85054C15.5839 8.24827 15.0765 8.40481 14.635 8.22447C14.1935 8.04414 13.9408 7.57713 14.0313 7.10888C14.1219 6.64064 14.5305 6.30149 15.0074 6.29874C15.2732 6.2972 15.5286 6.40155 15.7174 6.58874Z" fill="#FF567F"/>
</svg>
