<svg width="48" height="48" viewBox="0 0 48 48" fill="none" xmlns="http://www.w3.org/2000/svg">
<path fill-rule="evenodd" clip-rule="evenodd" d="M12.807 46.739C14.8124 48.5496 17.906 48.3916 19.7165 46.3861L21.7732 44.108C21.8416 44.0322 21.9139 43.96 21.9896 43.8916C23.2195 42.7813 25.1165 42.8782 26.2268 44.108L28.2835 46.3861C29.2695 47.4783 30.6947 48.0686 32.1643 47.9936C34.8626 47.8558 36.9383 45.5566 36.8005 42.8582L36.6439 39.7931C36.6387 39.6911 36.6387 39.589 36.6439 39.487C36.7285 37.8323 38.1384 36.5594 39.7931 36.6439L42.8582 36.8005C44.3278 36.8756 45.753 36.2852 46.739 35.193C48.5496 33.1876 48.3916 30.094 46.3861 28.2835L44.108 26.2268C44.0322 26.1584 43.96 26.0861 43.8916 26.0104C42.7813 24.7805 42.8782 22.8835 44.108 21.7732L46.3861 19.7165C47.4783 18.7305 48.0686 17.3053 47.9936 15.8357C47.8558 13.1374 45.5566 11.0617 42.8582 11.1995L39.7931 11.3561C39.6911 11.3613 39.589 11.3613 39.487 11.3561C37.8323 11.2715 36.5594 9.86163 36.6439 8.20693L36.8005 5.14175C36.8756 3.67224 36.2852 2.247 35.193 1.26097C33.1876 -0.549599 30.094 -0.391595 28.2835 1.61388L26.2268 3.89199C26.1584 3.96777 26.0861 4.04 26.0104 4.10841C24.7805 5.2187 22.8835 5.1218 21.7732 3.89199L19.7165 1.61388C18.7305 0.521708 17.3053 -0.0686484 15.8357 0.00640847C13.1374 0.14423 11.0617 2.4434 11.1995 5.14175L11.3561 8.20693C11.3613 8.30888 11.3613 8.41104 11.3561 8.51299C11.2715 10.1677 9.86163 11.4406 8.20693 11.3561L5.14175 11.1995C3.67224 11.1244 2.247 11.7148 1.26097 12.807C-0.549599 14.8124 -0.391595 17.906 1.61388 19.7165L3.89199 21.7732C3.96777 21.8416 4.04 21.9139 4.10841 21.9896C5.2187 23.2195 5.1218 25.1165 3.89199 26.2268L1.61388 28.2835C0.521708 29.2695 -0.0686484 30.6947 0.00640847 32.1643C0.14423 34.8626 2.4434 36.9383 5.14175 36.8005L8.20693 36.6439C8.30888 36.6387 8.41104 36.6387 8.51299 36.6439C10.1677 36.7285 11.4406 38.1384 11.3561 39.7931L11.1995 42.8582C11.1244 44.3278 11.7148 45.753 12.807 46.739ZM27.7113 42.7678C25.8608 40.7181 22.6991 40.5566 20.6494 42.4071C20.5231 42.5211 20.4027 42.6415 20.2887 42.7678L18.232 45.0459C17.1616 46.2315 15.3328 46.3249 14.1472 45.2545C13.5015 44.6716 13.1525 43.829 13.1969 42.9603L13.3534 39.8951C13.4943 37.1373 11.3728 34.7874 8.61501 34.6465C8.44509 34.6379 8.27483 34.6379 8.10491 34.6465L5.03973 34.8031C3.44451 34.8846 2.08528 33.6575 2.0038 32.0622C1.95943 31.1935 2.30844 30.3509 2.95411 29.768L5.23223 27.7113C7.28191 25.8608 7.4434 22.6991 5.59292 20.6494C5.4789 20.5231 5.35852 20.4027 5.23223 20.2887L2.95411 18.232C1.76851 17.1616 1.6751 15.3328 2.74548 14.1472C3.3284 13.5015 4.17098 13.1525 5.03973 13.1969L8.10491 13.3534C10.8627 13.4943 13.2126 11.3728 13.3534 8.61501C13.3621 8.44509 13.3621 8.27483 13.3534 8.10491L13.1969 5.03973C13.1154 3.44451 14.3425 2.08528 15.9378 2.0038C16.8065 1.95943 17.6491 2.30844 18.232 2.95411L20.2887 5.23223C22.1392 7.28191 25.3009 7.4434 27.3506 5.59292C27.4769 5.4789 27.5973 5.35852 27.7113 5.23223L29.768 2.95411C30.8384 1.76851 32.6672 1.6751 33.8528 2.74548C34.4985 3.3284 34.8475 4.17098 34.8031 5.03973L34.6465 8.10491C34.5057 10.8627 36.6272 13.2126 39.385 13.3534C39.5549 13.3621 39.7252 13.3621 39.8951 13.3534L42.9603 13.1969C44.5555 13.1154 45.9147 14.3425 45.9962 15.9378C46.0406 16.8065 45.6916 17.6491 45.0459 18.232L42.7678 20.2887C40.7181 22.1392 40.5566 25.3009 42.4071 27.3506C42.5211 27.4769 42.6415 27.5973 42.7678 27.7113L45.0459 29.768C46.2315 30.8384 46.3249 32.6672 45.2545 33.8528C44.6716 34.4985 43.829 34.8475 42.9603 34.8031L39.8951 34.6465C37.1373 34.5057 34.7874 36.6272 34.6465 39.385C34.6379 39.5549 34.6379 39.7252 34.6465 39.8951L34.8031 42.9603C34.8846 44.5555 33.6575 45.9147 32.0622 45.9962C31.1935 46.0406 30.3509 45.6916 29.768 45.0459L27.7113 42.7678Z" fill="#161616"/>
<path fill-rule="evenodd" clip-rule="evenodd" d="M32 25C32 28.866 28.866 32 25 32C21.134 32 18 28.866 18 25C18 21.134 21.134 18 25 18C28.866 18 32 21.134 32 25ZM20 25C20 27.7614 22.2386 30 25 30C27.7614 30 30 27.7614 30 25C30 22.2386 27.7614 20 25 20C22.2386 20 20 22.2386 20 25Z" fill="#FF3A10"/>
</svg>
