<svg width="25" height="16" viewBox="0 0 25 16" fill="none" xmlns="http://www.w3.org/2000/svg">
<path fill-rule="evenodd" clip-rule="evenodd" d="M4.86029 2.20075C5.31665 0.883894 6.55859 -0.00126732 7.95545 1.362e-06L7.95364 2C7.40479 1.9995 6.91743 2.35091 6.74455 2.87182L6.73574 2.89836L6.72546 2.92437C6.38798 3.7783 5.54347 4.31963 4.62947 4.27273H0V2.27273H4.65909H4.69413L4.72909 2.27518C4.78419 2.27905 4.83573 2.24932 4.86029 2.20075ZM11.2228 2.27273H25V4.27273H11.1932H11.1581L11.1232 4.27028C11.0681 4.26641 11.0165 4.29613 10.992 4.34471C10.5356 5.66156 9.29368 6.54672 7.89682 6.54545L7.89864 4.54546C8.44749 4.54595 8.93484 4.19455 9.10773 3.67364L9.11654 3.6471L9.12681 3.62109C9.4643 2.76716 10.3088 2.22582 11.2228 2.27273ZM18.1986 11.9627C18.0257 11.4418 17.5384 11.0904 16.9895 11.0909L16.9877 9.09091C18.3846 9.08964 19.6265 9.9748 20.0829 11.2917C20.1075 11.3402 20.159 11.37 20.2141 11.3661L20.2491 11.3636H20.2841H25V13.3636H20.3137C19.3997 13.4105 18.5552 12.8692 18.2177 12.0153L18.2074 11.9893L18.1986 11.9627ZM13.7204 11.3636C14.6344 11.3167 15.4789 11.8581 15.8164 12.712L15.8266 12.738L15.8355 12.7645C16.0083 13.2855 16.4957 13.6369 17.0445 13.6364L17.0464 15.6364C15.6495 15.6376 14.4076 14.7525 13.9512 13.4356C13.9266 13.387 13.8751 13.3573 13.82 13.3612L13.785 13.3636H13.75H0V11.3636H13.7204Z" fill="black"/>
</svg>
