<svg width="26" height="28" viewBox="0 0 26 28" fill="none" xmlns="http://www.w3.org/2000/svg">
<path fill-rule="evenodd" clip-rule="evenodd" d="M6.02942 27.6948C5.55749 27.6976 5.1308 27.4123 4.94983 26.9729C4.76886 26.5336 4.86957 26.0275 5.20466 25.6925L8.10874 22.7652C8.59436 22.2744 9.27071 22.0257 9.95574 22.086L17.367 22.7652C17.7114 22.7971 18.0521 22.6726 18.2963 22.4256L23.3262 17.3555C23.5712 17.1093 23.6947 16.7659 23.663 16.4187L23.1635 10.8919L19.1675 14.9199C18.7338 15.3597 18.1448 15.6082 17.5296 15.6108C16.9104 15.6113 16.3166 15.3626 15.8801 14.9199L12.5927 11.6062C12.1564 11.1669 11.9113 10.5708 11.9113 9.94928C11.9113 9.32773 12.1564 8.73167 12.5927 8.29241L16.8094 4.0419L11.9421 3.05832C11.5632 2.98183 11.1713 3.10033 10.8967 3.37447L5.15819 9.1589C4.91313 9.40501 4.78964 9.74841 4.82132 10.0956L5.49507 17.5662C5.55489 18.2568 5.30817 18.9385 4.82132 19.428L1.91723 22.3554C1.45634 22.7532 0.769311 22.7265 0.340239 22.294C-0.0888326 21.8615 -0.11537 21.1689 0.279327 20.7043L3.18341 17.777L2.50967 10.3064C2.41817 9.26866 2.78838 8.2435 3.52029 7.50788L9.25876 1.72345C10.0829 0.892988 11.2642 0.532673 12.4068 0.763279L18.3311 1.93422C18.9612 2.0605 19.4712 2.526 19.6583 3.1455C19.8453 3.765 19.679 4.43799 19.2256 4.89669L14.2422 9.92001L17.5296 13.2338L22.4085 8.31582C22.8877 7.83686 23.5983 7.67992 24.2323 7.91301C24.8663 8.1461 25.3098 8.72728 25.3706 9.4048L25.9863 16.1728C26.0778 17.2106 25.7076 18.2357 24.9757 18.9714L19.9458 24.0415C19.216 24.7793 18.199 25.1525 17.1695 25.0602L9.75827 24.3811L6.85418 27.3084C6.64279 27.5449 6.34501 27.6844 6.02942 27.6948Z" fill="black"/>
</svg>
