<svg width="23" height="24" viewBox="0 0 23 24" fill="none" xmlns="http://www.w3.org/2000/svg">
<path fill-rule="evenodd" clip-rule="evenodd" d="M5.33372 23.6948C4.91624 23.6973 4.53879 23.4469 4.37869 23.0613C4.2186 22.6757 4.3077 22.2316 4.60412 21.9376L7.17312 19.3686C7.60271 18.938 8.20101 18.7197 8.807 18.7726L15.3631 19.3686C15.6678 19.3967 15.9692 19.2874 16.1852 19.0706L20.6347 14.6211C20.8515 14.4051 20.9607 14.1038 20.9327 13.7991L20.4908 8.94878L16.9559 12.4837C16.5722 12.8697 16.0511 13.0877 15.507 13.09C14.9592 13.0904 14.4339 12.8722 14.0478 12.4837L11.1397 9.57562C10.7537 9.19013 10.5369 8.66704 10.5369 8.12157C10.5369 7.5761 10.7537 7.053 11.1397 6.66751L14.8698 2.93732L10.5642 2.07414C10.229 2.00701 9.88229 2.11101 9.63936 2.35159L4.56302 7.42794C4.34623 7.64392 4.23699 7.94529 4.26501 8.25002L4.86102 14.8061C4.91394 15.4121 4.69569 16.0104 4.26501 16.44L1.69601 19.009C1.2883 19.3581 0.680544 19.3347 0.300981 18.9551C-0.0785826 18.5755 -0.102058 17.9678 0.247097 17.5601L2.8161 14.9911L2.22009 8.43498C2.13915 7.52426 2.46664 6.62459 3.1141 5.97902L8.19044 0.902677C8.91945 0.173876 9.96448 -0.142332 10.9752 0.0600449L16.216 1.08764C16.7734 1.19847 17.2246 1.60699 17.39 2.15065C17.5555 2.69432 17.4084 3.28493 17.0072 3.68747L12.5988 8.09588L15.507 11.004L19.8229 6.68806C20.2468 6.26773 20.8754 6.13001 21.4363 6.33456C21.9971 6.53911 22.3894 7.04915 22.4433 7.64373L22.9879 13.5833C23.0688 14.494 22.7413 15.3937 22.0939 16.0392L17.6444 20.4887C16.9988 21.1362 16.0991 21.4637 15.1884 21.3827L8.63231 20.7867L6.06331 23.3557C5.87631 23.5632 5.6129 23.6857 5.33372 23.6948Z" fill="black"/>
</svg>
