<svg width="42" height="42" viewBox="0 0 42 42" fill="none" xmlns="http://www.w3.org/2000/svg">
<circle cx="21" cy="21" r="21" fill="black"/>
<g clip-path="url(#clip0_57_60)">
<path d="M28.3125 14.2498H13.6875C12.757 14.2498 12 15.0067 12 15.9373V26.0623C12 26.9928 12.757 27.7498 13.6875 27.7498H28.3125C29.243 27.7498 30 26.9928 30 26.0623V15.9373C30 15.0067 29.243 14.2498 28.3125 14.2498ZM28.3125 15.3748C28.3889 15.3748 28.4616 15.3906 28.5281 15.4183L21 21.9429L13.4719 15.4183C13.5383 15.3906 13.611 15.3748 13.6875 15.3748H28.3125ZM28.3125 26.6247H13.6875C13.3772 26.6247 13.125 26.3726 13.125 26.0622V16.6069L20.6314 23.1124C20.7374 23.2041 20.8687 23.2498 21 23.2498C21.1313 23.2498 21.2626 23.2042 21.3686 23.1124L28.875 16.6069V26.0623C28.875 26.3726 28.6228 26.6247 28.3125 26.6247Z" fill="white" stroke="white"/>
</g>
<defs>
<clipPath id="clip0_57_60">
<rect width="18" height="18" fill="white" transform="translate(12 12)"/>
</clipPath>
</defs>
</svg>
