<svg width="30" height="28" viewBox="0 0 30 28" fill="none" xmlns="http://www.w3.org/2000/svg">
<path fill-rule="evenodd" clip-rule="evenodd" d="M29.8803 20.6889C30.9627 25.5626 24.4606 29.0639 20.1423 27.2097C8.7113 22.3014 18.9261 5.26944 25.848 0.892723C27.0345 0.142534 28.1378 1.95152 26.9613 2.69505C23.8133 4.6861 21.4452 8.04646 19.794 11.2081C18.8087 13.0947 17.8009 15.3838 17.4604 17.6673C19.1069 16.0695 21.3569 15.0555 23.8022 15.4815C26.6276 15.9735 29.2726 17.9531 29.8803 20.6889ZM24.3429 17.7465C21.565 16.986 19.2607 18.32 17.8695 20.5856C17.8593 20.6022 17.8477 20.6156 17.8361 20.6291C17.8286 20.6378 17.8211 20.6465 17.814 20.6559C17.8167 21.1217 17.8249 21.5867 17.8554 22.051C19.3574 25.7755 25.3108 27.2806 27.3811 23.0773C28.4722 20.8625 26.7165 18.3962 24.3429 17.7465Z" fill="#FF4242"/>
<path fill-rule="evenodd" clip-rule="evenodd" d="M14.8804 20.6889C15.9626 25.5626 9.46071 29.0639 5.14254 27.2097C-6.28886 22.3014 3.92612 5.26944 10.8481 0.892723C12.0344 0.142534 13.138 1.95152 11.9615 2.69505C8.81304 4.6861 6.44526 8.04646 4.79412 11.2081C3.80833 13.0947 2.8013 15.3838 2.46068 17.6673C4.10688 16.0695 6.35687 15.0555 8.80211 15.4815C11.6276 15.9735 14.273 17.9531 14.8804 20.6889ZM9.34264 17.7465C6.56493 16.986 4.26048 18.32 2.86929 20.5856C2.86471 20.5934 2.85921 20.5996 2.85369 20.6059C2.84971 20.6103 2.84572 20.6148 2.84205 20.62C2.8502 21.2758 2.90857 21.9074 3.08223 22.5304C4.87875 25.8956 10.4021 27.0949 12.3807 23.0773C13.4719 20.8625 11.7161 18.3962 9.34264 17.7465Z" fill="#FF4242"/>
</svg>
