<svg width="22" height="22" viewBox="0 0 22 22" fill="none" xmlns="http://www.w3.org/2000/svg">
<path fill-rule="evenodd" clip-rule="evenodd" d="M13.5506 10.4204C13.3276 9.90473 13.0952 9.38996 12.8472 8.88078C14.9643 7.96383 16.6659 6.71859 17.9334 5.13949C19.1701 6.60086 19.9465 8.45668 20.0608 10.4878C17.7005 10.1015 15.5298 10.08 13.5506 10.4204ZM16.0437 18.553C15.6423 16.3969 15.0532 14.2884 14.2841 12.2315C16.0033 11.9883 17.8961 12.0514 19.9659 12.4115C19.5654 14.9652 18.1079 17.1712 16.0437 18.553ZM5.42352 18.1595C7.2282 15.3282 9.53262 13.4853 12.3879 12.6345C13.2374 14.8534 13.863 17.1351 14.2609 19.4726C11.2866 20.622 7.94449 20.1283 5.42352 18.1595ZM1.92543 10.7658C5.45273 10.7607 8.49578 10.3555 11.0455 9.55324C11.2591 9.98852 11.4636 10.4259 11.6591 10.8664C8.56238 11.834 6.00918 13.8188 4.01801 16.8064C2.58457 15.0859 1.87086 12.9993 1.92543 10.7658ZM6.90035 2.90125C8.12109 4.4984 9.20176 6.14496 10.1423 7.83449C7.91441 8.4902 5.25594 8.82707 2.18152 8.84812C2.8166 6.24937 4.56629 4.08805 6.90035 2.90125ZM16.5395 3.81305C15.4352 5.23703 13.9107 6.36324 11.9681 7.18566C11.0374 5.48023 9.97348 3.81648 8.77164 2.20172C11.4924 1.50777 14.3069 2.08871 16.5395 3.81305ZM10.9996 0C4.92465 0 0 4.92508 0 11C0 17.0749 4.92465 22 10.9996 22C17.0754 22 22 17.0749 22 11C22 4.92508 17.0749 0 10.9996 0V0Z" fill="black"/>
</svg>
