<svg width="63" height="52" viewBox="0 0 63 52" fill="none" xmlns="http://www.w3.org/2000/svg">
<path d="M63 28.0884C63 22.1047 58.1102 17.1769 52.0157 17.1769C51.7323 17.1769 51.4488 17.1769 51.1654 17.1769C51.3071 16.4025 51.378 15.5578 51.378 14.713C51.378 6.61733 44.7165 0 36.5669 0C29.3386 0 23.3858 5.06859 22.0394 11.8267C19.8425 10.5596 17.2913 9.8556 14.6693 9.8556C6.59055 9.8556 0 16.4025 0 24.4278C0 31.5379 5.10236 37.5921 12.189 38.7888H12.4016C13.1102 38.7888 13.6772 38.296 13.8189 37.5921C13.9606 36.8177 13.4646 36.1137 12.685 35.9729C7.01575 34.9874 2.90551 30.13 2.90551 24.4278C2.90551 17.9513 8.22047 12.6715 14.7402 12.6715C17.5039 12.6715 20.1968 13.657 22.3228 15.417C23.0315 16.0505 24.4488 15.8393 24.6614 14.361C24.874 7.88448 30.1181 2.81588 36.6378 2.81588C43.2283 2.81588 48.6142 8.16607 48.6142 14.713C48.6142 16.0505 48.4016 17.3177 47.9764 18.5144C47.6929 19.4296 48.4016 20.6264 49.748 20.3448C50.5276 20.1336 51.3071 19.9928 52.0866 19.9928C56.5512 19.9928 60.2362 23.6534 60.2362 28.0884C60.2362 32.5235 56.622 36.1841 52.0866 36.1841H49.3937C48.6142 36.1841 47.9764 36.8177 47.9764 37.5921C47.9764 38.3664 48.6142 39 49.3937 39H52.0866C58.1102 39 63 34.1426 63 28.0884Z" fill="#1B1B1B"/>
<path fill-rule="evenodd" clip-rule="evenodd" d="M17.0137 37.993C17.0137 30.2363 23.5411 24.0033 31.503 24.0033C39.465 24.0033 45.9924 30.3056 45.9924 37.993C45.9924 45.6804 39.5367 51.9827 31.503 51.9827C23.4693 51.9827 17.0137 45.7497 17.0137 37.993ZM19.8829 37.993C19.8829 44.1568 25.1191 49.2125 31.503 49.2125C37.8869 49.2125 43.1232 44.1568 43.1232 37.993C43.1232 31.8292 37.8869 26.7735 31.503 26.7735C25.1191 26.7735 19.8829 31.8292 19.8829 37.993Z" fill="#FF3A10"/>
<path d="M37.2417 32.4525L28.8493 40.5555L25.765 37.5775C25.1911 37.0234 24.3304 37.0234 23.7565 37.5775C23.1827 38.1315 23.1827 38.9626 23.7565 39.5167L28.9211 44.5031L39.3218 34.461C39.8957 33.9069 39.8957 33.0758 39.3218 32.5218C38.748 31.9677 37.8155 31.9677 37.2417 32.4525Z" fill="#FF3A10"/>
</svg>
