<svg width="60" height="60" viewBox="0 0 60 60" fill="none" xmlns="http://www.w3.org/2000/svg">
<path fill-rule="evenodd" clip-rule="evenodd" d="M52.8571 0H7.14286C3.19797 0 0 3.19797 0 7.14286V52.8571C0 56.802 3.19797 60 7.14286 60H52.8571C56.802 60 60 56.802 60 52.8571V7.14286C60 3.19797 56.802 0 52.8571 0ZM2.85714 7.14286C2.85714 4.77592 4.77592 2.85714 7.14286 2.85714H52.8571C55.2241 2.85714 57.1429 4.77592 57.1429 7.14286V52.8571C57.1429 55.2241 55.2241 57.1429 52.8571 57.1429H7.14286C4.77592 57.1429 2.85714 55.2241 2.85714 52.8571V7.14286Z" fill="black"/>
<path opacity="0.102283" fill-rule="evenodd" clip-rule="evenodd" d="M53 16.8889C53 15.2934 51.7128 14 50.125 14H9.875C8.28718 14 7 15.2934 7 16.8889V28.4444C7 30.0399 8.28718 31.3333 9.875 31.3333H50.125C51.7128 31.3333 53 30.0399 53 28.4444V16.8889ZM18.5 35.6667C20.0878 35.6667 21.375 36.9601 21.375 38.5556V50.1111C21.375 51.7066 20.0878 53 18.5 53H9.875C8.28718 53 7 51.7066 7 50.1111V38.5556C7 36.9601 8.28718 35.6667 9.875 35.6667H18.5ZM50.125 35.6667C51.7128 35.6667 53 36.9601 53 38.5556V50.1111C53 51.7066 51.7128 53 50.125 53H28.5625C26.9747 53 25.6875 51.7066 25.6875 50.1111V38.5556C25.6875 36.9601 26.9747 35.6667 28.5625 35.6667H50.125Z" fill="black"/>
<path fill-rule="evenodd" clip-rule="evenodd" d="M8.46154 7H9.92308C10.7303 7 11.3846 7.67157 11.3846 8.5C11.3846 9.26925 10.8204 9.90326 10.0935 9.98991L9.92308 10H8.46154C7.65435 10 7 9.32843 7 8.5C7 7.73075 7.56421 7.09674 8.29109 7.01009L8.46154 7ZM15.7692 7H17.2308C18.038 7 18.6923 7.67157 18.6923 8.5C18.6923 9.26925 18.1281 9.90326 17.4012 9.98991L17.2308 10H15.7692C14.962 10 14.3077 9.32843 14.3077 8.5C14.3077 7.73075 14.8719 7.09674 15.5988 7.01009L15.7692 7ZM26 8.5C26 7.67157 25.3456 7 24.5385 7H23.0769C22.2697 7 21.6154 7.67157 21.6154 8.5C21.6154 9.32843 22.2697 10 23.0769 10H24.5385C25.3456 10 26 9.32843 26 8.5Z" fill="black"/>
</svg>
