<svg width="23" height="24" viewBox="0 0 23 24" fill="none" xmlns="http://www.w3.org/2000/svg">
<path fill-rule="evenodd" clip-rule="evenodd" d="M5.33372 23.695C4.91624 23.6974 4.53879 23.447 4.37869 23.0614C4.2186 22.6759 4.3077 22.2318 4.60412 21.9378L7.17312 19.3688C7.60271 18.9381 8.20101 18.7198 8.807 18.7728L15.3631 19.3688C15.6678 19.3968 15.9692 19.2875 16.1852 19.0708L20.6347 14.6213C20.8515 14.4053 20.9607 14.1039 20.9327 13.7992L20.4908 8.94891L16.9559 12.4838C16.5722 12.8698 16.0511 13.0878 15.507 13.0901C14.9592 13.0906 14.4339 12.8723 14.0478 12.4838L11.1397 9.57574C10.7537 9.19025 10.5369 8.66716 10.5369 8.12169C10.5369 7.57622 10.7537 7.05312 11.1397 6.66763L14.8698 2.93745L10.5642 2.07426C10.229 2.00714 9.88229 2.11114 9.63936 2.35171L4.56302 7.42806C4.34623 7.64404 4.23699 7.94541 4.26501 8.25014L4.86102 14.8062C4.91394 15.4122 4.69569 16.0105 4.26501 16.4401L1.69601 19.0091C1.2883 19.3583 0.680544 19.3348 0.300981 18.9552C-0.0785826 18.5757 -0.102058 17.9679 0.247097 17.5602L2.8161 14.9912L2.22009 8.43511C2.13915 7.52438 2.46664 6.62471 3.1141 5.97914L8.19044 0.902799C8.91945 0.173998 9.96448 -0.14221 10.9752 0.060167L16.216 1.08777C16.7734 1.19859 17.2246 1.60711 17.39 2.15078C17.5555 2.69444 17.4084 3.28505 17.0072 3.68759L12.5988 8.096L15.507 11.0041L19.8229 6.68819C20.2468 6.26785 20.8754 6.13013 21.4363 6.33468C21.9971 6.53924 22.3894 7.04927 22.4433 7.64385L22.9879 13.5834C23.0688 14.4941 22.7413 15.3938 22.0939 16.0393L17.6444 20.4889C16.9988 21.1363 16.0991 21.4638 15.1884 21.3829L8.63231 20.7869L6.06331 23.3559C5.87631 23.5634 5.6129 23.6858 5.33372 23.695Z" fill="white"/>
</svg>
