<svg width="26" height="26" viewBox="0 0 26 26" fill="none" xmlns="http://www.w3.org/2000/svg">
<path fill-rule="evenodd" clip-rule="evenodd" d="M25.155 6.22159L21.8931 1.81459C21.0793 0.676811 19.7668 0.00121506 18.3679 1.91462e-06H7.63209C6.24016 -0.00130459 4.93234 0.666109 4.11667 1.794L0.796254 6.23242C-0.314146 7.79819 -0.25989 9.90844 0.929504 11.4151L10.4542 24.7704C11.0692 25.5492 12.0077 26.0025 13 26C14.0096 25.998 14.9612 25.5278 15.5762 24.7271L25.025 11.5202C26.2693 9.98945 26.3228 7.81148 25.155 6.22159ZM20.1413 3.08859L23.4108 7.50642C23.4196 7.51852 23.4251 7.53174 23.4306 7.54508C23.4359 7.55801 23.4413 7.57107 23.4498 7.58333H18.1502L16.6032 2.16667H18.3679C19.0734 2.16886 19.7342 2.51238 20.1413 3.08859ZM10.075 9.75L13 20.7112L15.925 9.75H10.075ZM10.1032 7.58333L11.6502 2.16667H14.3498L15.8968 7.58333H10.1032ZM7.63209 2.16667C6.93256 2.16761 6.27621 2.50505 5.86842 3.07342L2.548 7.5075C2.53855 7.51991 2.53296 7.53425 2.52738 7.5486L2.52737 7.5486C2.52272 7.56055 2.51806 7.5725 2.51117 7.58333H7.84984L9.39684 2.16667H7.63209ZM2.652 10.1021C2.57378 9.9916 2.50665 9.87367 2.45159 9.75H7.83467L11.0782 21.9158L2.652 10.1021ZM18.1686 9.75L14.9186 21.9267L23.3068 10.2061C23.4119 10.0648 23.5003 9.91171 23.5701 9.75H18.1686Z" fill="black"/>
</svg>
