<svg width="50" height="50" viewBox="0 0 50 50" fill="none" xmlns="http://www.w3.org/2000/svg">
<path fill-rule="evenodd" clip-rule="evenodd" d="M44.0476 0H5.95238C2.66497 0 0 2.66497 0 5.95238V44.0476C0 47.335 2.66497 50 5.95238 50H44.0476C47.335 50 50 47.335 50 44.0476V5.95238C50 2.66497 47.335 0 44.0476 0ZM2.38095 5.95238C2.38095 3.97994 3.97994 2.38095 5.95238 2.38095H44.0476C46.0201 2.38095 47.619 3.97994 47.619 5.95238V44.0476C47.619 46.0201 46.0201 47.619 44.0476 47.619H5.95238C3.97994 47.619 2.38095 46.0201 2.38095 44.0476V5.95238Z" fill="#161616"/>
<path fill-rule="evenodd" clip-rule="evenodd" d="M6.95296 5.76929H8.1364C8.78999 5.76929 9.31983 6.41503 9.31983 7.21159C9.31983 7.95126 8.86297 8.56088 8.27441 8.6442L8.1364 8.6539H6.95296C6.29937 8.6539 5.76953 8.00816 5.76953 7.21159C5.76953 6.47193 6.22638 5.86231 6.81495 5.77899L6.95296 5.76929ZM12.8701 5.76929H14.0536C14.7071 5.76929 15.237 6.41503 15.237 7.21159C15.237 7.95126 14.7801 8.56088 14.1916 8.6442L14.0536 8.6539H12.8701C12.2165 8.6539 11.6867 8.00816 11.6867 7.21159C11.6867 6.47193 12.1435 5.86231 12.7321 5.77899L12.8701 5.76929ZM21.1541 7.21159C21.1541 6.41503 20.6243 5.76929 19.9707 5.76929H18.7873C18.1337 5.76929 17.6039 6.41503 17.6039 7.21159C17.6039 8.00816 18.1337 8.6539 18.7873 8.6539H19.9707C20.6243 8.6539 21.1541 8.00816 21.1541 7.21159Z" fill="#FF3A10"/>
</svg>
