<svg width="42" height="43" viewBox="0 0 42 43" fill="none" xmlns="http://www.w3.org/2000/svg">
<path d="M10.0935 27.7947L16.3292 19.6902L23.4421 25.2775L29.5443 17.4019" stroke="#FF3767" stroke-width="1.5" stroke-linecap="round" stroke-linejoin="round"/>
<path d="M36.6572 9.75525C38.8688 9.75525 40.6617 7.96234 40.6617 5.75067C40.6617 3.539 38.8688 1.74609 36.6572 1.74609C34.4455 1.74609 32.6526 3.539 32.6526 5.75067C32.6526 7.96234 34.4455 9.75525 36.6572 9.75525Z" stroke="#FF0B0B" stroke-width="1.5" stroke-linecap="round" stroke-linejoin="round"/>
<path d="M26.0927 3.50049H10.9516C4.67776 3.50049 0.787598 7.94366 0.787598 14.2175V31.0558C0.787598 37.3296 4.60148 41.7537 10.9516 41.7537H28.8768C35.1507 41.7537 39.0408 37.3296 39.0408 31.0558V16.3914" stroke="black" stroke-width="1.5" stroke-linecap="round" stroke-linejoin="round"/>
</svg>
