<svg width="44" height="44" viewBox="0 0 44 44" fill="none" xmlns="http://www.w3.org/2000/svg">
<path fill-rule="evenodd" clip-rule="evenodd" d="M36.732 36.7287C30.365 43.0964 20.937 44.4721 13.2217 40.904C12.0827 40.4455 11.1489 40.0748 10.2612 40.0748C7.78851 40.0895 4.71075 42.4871 3.11116 40.8894C1.51156 39.2896 3.91095 36.2094 3.91095 33.7218C3.91095 32.834 3.55502 31.9168 3.0965 30.7756C-0.47328 23.0616 0.904383 13.6304 7.27136 7.26485C15.3992 -0.865929 28.6042 -0.865929 36.732 7.26276C44.8744 15.4061 44.8598 28.6 36.732 36.7287Z" stroke="black" stroke-width="1.5" stroke-linecap="round" stroke-linejoin="round"/>
<path d="M30.2071 22.8604H30.2251" stroke="#FF333F" stroke-width="3" stroke-linecap="round" stroke-linejoin="round"/>
<path d="M21.855 22.8604H21.873" stroke="#FF333F" stroke-width="3" stroke-linecap="round" stroke-linejoin="round"/>
<path d="M13.5029 22.8604H13.5209" stroke="#FF333F" stroke-width="3" stroke-linecap="round" stroke-linejoin="round"/>
</svg>
