<?xml version="1.0" encoding="UTF-8"?>
<svg xmlns="http://www.w3.org/2000/svg" id="Layer_1" data-name="Layer 1" viewBox="0 0 24 24" width="512" height="512"><path d="M6.96,14c2.21,0,4-1.79,4-4s-1.79-4-4-4-4,1.79-4,4,1.79,4,4,4Zm0-7c1.65,0,3,1.35,3,3s-1.35,3-3,3-3-1.35-3-3,1.35-3,3-3Zm7,16v.5c0,.28-.22,.5-.5,.5s-.5-.22-.5-.5v-.5c0-3.31-2.69-6-6-6S.96,19.69,.96,23v.5c0,.28-.22,.5-.5,.5s-.5-.22-.5-.5v-.5c0-3.86,3.14-7,7-7s7,3.14,7,7ZM24,4.5l-.04,9c0,2.48-2.02,4.5-4.5,4.5h-5c-.28,0-.5-.22-.5-.5s.22-.5,.5-.5h5c1.93,0,3.5-1.57,3.5-3.5l.04-9c0-1.93-1.57-3.5-3.5-3.5H9.46c-1.6,0-2.99,1.08-3.39,2.62-.07,.27-.34,.43-.61,.36-.27-.07-.43-.34-.36-.61,.51-1.99,2.3-3.38,4.36-3.38h10.04c2.48,0,4.5,2.02,4.5,4.5Zm-9.64,6.4l4.9-4.9h-3.79c-.28,0-.5-.22-.5-.5s.22-.5,.5-.5h4c.83,0,1.5,.67,1.5,1.5v4c0,.28-.22,.5-.5,.5s-.5-.22-.5-.5v-3.79l-4.9,4.9c-.29,.29-.68,.44-1.06,.44s-.77-.15-1.06-.44l-.29-.29c-.2-.2-.2-.51,0-.71s.51-.2,.71,0l.29,.29c.2,.19,.51,.19,.71,0Z"/></svg>
