<?xml version="1.0" encoding="UTF-8"?>
<svg xmlns="http://www.w3.org/2000/svg" id="Layer_1" data-name="Layer 1" viewBox="0 0 24 24" width="512" height="512"><path d="m22,18.172V5.828c1.164-.413,2-1.524,2-2.828,0-1.654-1.346-3-3-3-1.304,0-2.415.836-2.828,2H5.828c-.413-1.164-1.524-2-2.828-2C1.346,0,0,1.346,0,3c0,1.304.836,2.415,2,2.828v12.344c-1.164.413-2,1.524-2,2.828,0,1.654,1.346,3,3,3,1.304,0,2.415-.836,2.828-2h12.344c.413,1.164,1.524,2,2.828,2,1.654,0,3-1.346,3-3,0-1.304-.836-2.415-2-2.828Zm-1-17.172c1.103,0,2,.897,2,2s-.897,2-2,2-2-.897-2-2,.897-2,2-2ZM1,3c0-1.103.897-2,2-2s2,.897,2,2-.897,2-2,2-2-.897-2-2Zm2,20c-1.103,0-2-.897-2-2s.897-2,2-2,2,.897,2,2-.897,2-2,2Zm3-2c0-1.654-1.346-3-3-3V6c1.654,0,3-1.346,3-3h12c0,1.654,1.346,3,3,3v12c-1.654,0-3,1.346-3,3H6Zm15,2c-1.103,0-2-.897-2-2s.897-2,2-2,2,.897,2,2-.897,2-2,2Zm-7.039-11.98v-2c0-1.103-.897-2-2-2h-4c-1.103,0-2,.897-2,2v2c0,1.103.897,2,2,2h4c1.103,0,2-.897,2-2Zm-7,0v-2c0-.552.449-1,1-1h4c.551,0,1,.448,1,1v2c0,.552-.449,1-1,1h-4c-.551,0-1-.448-1-1Zm11,2v2c0,1.103-.897,2-2,2h-4c-.858,0-1.62-.546-1.895-1.359-.088-.262.052-.545.313-.634.261-.086.545.052.634.313.138.406.519.68.948.68h4c.551,0,1-.448,1-1v-2c0-.411-.257-.786-.641-.934-.258-.099-.387-.388-.288-.646s.388-.386.646-.288c.767.294,1.282,1.045,1.282,1.867Z"/></svg>
