<?xml version="1.0" encoding="UTF-8"?>
<svg xmlns="http://www.w3.org/2000/svg" id="Layer_1" data-name="Layer 1" viewBox="0 0 24 24" width="512" height="512"><path d="M6.671,11.618c-.437-.43-.669-.983-.671-1.574s.227-1.146,.645-1.563l2.514-2.347c.203-.188,.518-.177,.707,.024,.188,.202,.177,.519-.024,.707l-2.502,2.334c-.215,.216-.34,.519-.339,.84,0,.322,.128,.624,.357,.85l2.478,2.238c.205,.185,.221,.501,.036,.706-.099,.109-.235,.165-.371,.165-.12,0-.24-.042-.335-.129l-2.494-2.253Zm9.978-2.43c.228,.228,.353,.531,.352,.853,0,.322-.128,.624-.341,.835l-2.494,2.253c-.205,.185-.221,.501-.036,.706,.099,.109,.235,.165,.371,.165,.12,0,.24-.042,.335-.129l2.51-2.269c.42-.415,.653-.968,.655-1.559s-.227-1.146-.657-1.575l-2.502-2.334c-.203-.188-.518-.176-.707,.024-.188,.202-.177,.519,.024,.707l2.49,2.322Zm7.352,9.312c0,1.378-1.122,2.5-2.5,2.5H2.5c-1.378,0-2.5-1.122-2.5-2.5,0-1.207,.86-2.217,2-2.45V7.5c0-2.481,2.019-4.5,4.5-4.5h11c2.481,0,4.5,2.019,4.5,4.5v8.55c1.14,.232,2,1.242,2,2.45ZM3,7.5v8.5h5.5c.133,0,.26,.053,.354,.146l.854,.854h4.586l.854-.854c.094-.094,.221-.146,.354-.146h5.5V7.5c0-1.93-1.57-3.5-3.5-3.5H6.5c-1.93,0-3.5,1.57-3.5,3.5Zm20,11c0-.827-.673-1.5-1.5-1.5h-5.793l-.854,.854c-.094,.094-.221,.146-.354,.146h-5c-.133,0-.26-.053-.354-.146l-.854-.854H2.5c-.827,0-1.5,.673-1.5,1.5s.673,1.5,1.5,1.5H21.5c.827,0,1.5-.673,1.5-1.5Z"/></svg>
