<?xml version="1.0" encoding="UTF-8"?>
<svg xmlns="http://www.w3.org/2000/svg" id="Layer_1" data-name="Layer 1" viewBox="0 0 24 24" width="512" height="512"><path d="M20.5,15H3.5c-1.93,0-3.5,1.57-3.5,3.5v2c0,1.93,1.57,3.5,3.5,3.5H20.5c1.93,0,3.5-1.57,3.5-3.5v-2c0-1.93-1.57-3.5-3.5-3.5Zm2.45,3l-5,5h-3.59l6.89-6.89c.86,.27,1.52,.99,1.7,1.88Zm-13.59,5l7-7h3.59l-7,7h-3.59Zm-5,0l7-7h3.59l-7,7h-3.59Zm-.86-7h1.45l-3.95,3.95v-1.45c0-1.38,1.12-2.5,2.5-2.5Zm-2.39,5.25l5.25-5.25h3.59l-6.93,6.93s-.01,.01-.02,.02c-.89-.18-1.62-.84-1.89-1.7Zm19.39,1.75h-1.14l3.64-3.64v1.14c0,1.38-1.12,2.5-2.5,2.5ZM3.5,9h7c1.93,0,3.5-1.57,3.5-3.5v-.5h3c1.38,0,2.5,1.12,2.5,2.5v1.5h-1.64c-.48,0-.91,.29-1.09,.73-.18,.44-.08,.95,.26,1.28l2.14,2.14c.23,.23,.53,.34,.83,.34s.6-.12,.83-.34l2.14-2.14c.34-.34,.44-.84,.26-1.28-.18-.44-.61-.73-1.09-.73h-1.64v-1.5c0-1.93-1.57-3.5-3.5-3.5h-3v-.5c0-1.93-1.57-3.5-3.5-3.5H3.5C1.57,0,0,1.57,0,3.5v2c0,1.93,1.57,3.5,3.5,3.5Zm18.81,1.11s.03,.12-.04,.19l-2.14,2.14c-.07,.07-.18,.07-.25,0l-2.14-2.14c-.07-.07-.06-.15-.04-.19s.06-.11,.16-.11h4.29c.1,0,.15,.07,.16,.11ZM1,3.5c0-1.38,1.12-2.5,2.5-2.5h7c1.38,0,2.5,1.12,2.5,2.5v2c0,1.38-1.12,2.5-2.5,2.5H3.5c-1.38,0-2.5-1.12-2.5-2.5V3.5Z"/></svg>
