<?xml version="1.0" encoding="UTF-8"?>
<svg xmlns="http://www.w3.org/2000/svg" id="Layer_1" data-name="Layer 1" viewBox="0 0 24 24" width="512" height="512"><path d="M19.5,22H4.5c-2.481,0-4.5-2.019-4.5-4.5V6.5C0,4.019,2.019,2,4.5,2h15c2.481,0,4.5,2.019,4.5,4.5v11c0,2.481-2.019,4.5-4.5,4.5ZM4.5,3c-1.93,0-3.5,1.57-3.5,3.5v11c0,1.93,1.57,3.5,3.5,3.5h15c1.93,0,3.5-1.57,3.5-3.5V6.5c0-1.93-1.57-3.5-3.5-3.5H4.5Zm10.684,13.854l3.083-3.083c.472-.473,.732-1.1,.732-1.768s-.26-1.296-.732-1.768l-3.088-3.088c-.195-.195-.512-.195-.707,0s-.195,.512,0,.707l3.088,3.088c.283,.283,.439,.66,.439,1.061s-.156,.778-.439,1.061l-3.083,3.083c-.195,.195-.195,.512,0,.707,.098,.098,.226,.146,.354,.146s.256-.049,.354-.146Zm-5.661,0c.195-.195,.195-.512,0-.707l-3.083-3.083c-.283-.283-.439-.66-.439-1.061s.156-.777,.439-1.061l3.088-3.088c.195-.195,.195-.512,0-.707s-.512-.195-.707,0l-3.088,3.088c-.472,.472-.732,1.1-.732,1.768s.26,1.295,.732,1.768l3.083,3.083c.098,.098,.226,.146,.354,.146s.256-.049,.354-.146Z"/></svg>
