<?xml version="1.0" encoding="UTF-8"?>
<svg xmlns="http://www.w3.org/2000/svg" id="Layer_1" data-name="Layer 1" viewBox="0 0 24 24" width="512" height="512"><path d="M19.5,4h-2.03c-.25-2.25-2.16-4-4.47-4h-2.5c-2.31,0-4.22,1.75-4.47,4h-1.53C2.02,4,0,6.02,0,8.5v11c0,2.48,2.02,4.5,4.5,4.5h15c2.48,0,4.5-2.02,4.5-4.5V8.5c0-2.48-2.02-4.5-4.5-4.5ZM10.5,1h2.5c1.76,0,3.22,1.31,3.46,3H7.04c.24-1.69,1.7-3,3.46-3Zm12.5,18.5c0,1.93-1.57,3.5-3.5,3.5H4.5c-1.93,0-3.5-1.57-3.5-3.5V8.5c0-1.93,1.57-3.5,3.5-3.5h15c1.93,0,3.5,1.57,3.5,3.5v11Zm-5.72-6.76c.46,.46,.72,1.09,.72,1.76s-.26,1.3-.73,1.77l-2.4,2.57c-.1,.11-.23,.16-.37,.16-.12,0-.24-.04-.34-.13-.2-.19-.21-.5-.02-.71l2.41-2.59c.17-.17,.29-.36,.37-.57H6.5c-.28,0-.5-.22-.5-.5s.22-.5,.5-.5h10.41s0,0,0,0c-.07-.21-.19-.4-.35-.56l-2.43-2.6c-.19-.2-.18-.52,.02-.71,.2-.19,.52-.18,.71,.02l2.41,2.59Z"/></svg>
